<svg width="1208" height="1363" viewBox="0 0 1208 1363" fill="none" xmlns="http://www.w3.org/2000/svg">
<path fill-rule="evenodd" clip-rule="evenodd" d="M639.637 8.81911C617.175 -2.93971 590.376 -2.9397 567.913 8.81913L41.4618 284.415C15.9731 297.758 0 324.149 0 352.919V537.227V824.806V1009.11C0 1037.88 15.973 1064.28 41.4617 1077.62L567.913 1353.21C590.376 1364.97 617.175 1364.97 639.637 1353.21L1166.09 1077.62C1191.58 1064.28 1207.55 1037.88 1207.55 1009.11V824.806V537.227V352.919C1207.55 324.149 1191.58 297.758 1166.09 284.415L639.637 8.81911Z" fill="url(#paint0_linear_18_42398)"/>
<rect width="613.509" height="613.509" rx="96.6542" transform="matrix(0.869859 0.4933 -0.869859 0.4933 603.77 603.574)" fill="#A31BCB"/>
<rect y="5.55327" width="595.453" height="602.252" rx="91.0255" transform="matrix(0.869859 0.4933 -0.869859 0.4933 611.558 396.38)" stroke="white" stroke-width="11.2574"/>
<rect y="5.55327" width="595.453" height="602.252" rx="91.0255" transform="matrix(0.869859 0.4933 -0.869859 0.4933 611.498 499.814)" stroke="#3425E7" stroke-width="11.2574"/>
<path d="M615.687 503.567C609.042 507.15 598.267 507.15 591.621 503.567C584.976 499.985 584.976 494.176 591.621 490.593C598.267 487.011 609.042 487.011 615.687 490.593C622.333 494.176 622.333 499.985 615.687 503.567Z" fill="white"/>
<path d="M519.306 555.526C512.661 559.109 501.886 559.109 495.241 555.526C488.595 551.944 488.595 546.135 495.241 542.552C501.886 538.97 512.661 538.97 519.306 542.552C525.952 546.135 525.952 551.944 519.306 555.526Z" fill="white"/>
<path d="M422.926 607.485C416.28 611.068 405.505 611.068 398.86 607.485C392.214 603.902 392.214 598.094 398.86 594.511C405.505 590.929 416.28 590.929 422.926 594.511C429.571 598.094 429.571 603.902 422.926 607.485Z" fill="white"/>
<path d="M326.545 659.444C319.899 663.027 309.125 663.027 302.479 659.444C295.834 655.861 295.834 650.053 302.479 646.47C309.125 642.888 319.899 642.888 326.545 646.47C333.191 650.053 333.191 655.861 326.545 659.444Z" fill="white"/>
<path d="M230.164 711.403C223.519 714.986 212.744 714.986 206.098 711.403C199.453 707.82 199.453 702.012 206.098 698.429C212.744 694.846 223.519 694.846 230.164 698.429C236.81 702.012 236.81 707.82 230.164 711.403Z" fill="white"/>
<path d="M615.687 607.485C609.042 611.068 598.267 611.068 591.621 607.485C584.976 603.902 584.976 598.094 591.621 594.511C598.267 590.929 609.042 590.929 615.687 594.511C622.333 598.094 622.333 603.902 615.687 607.485Z" fill="white"/>
<path d="M712.068 555.526C705.422 559.109 694.648 559.109 688.002 555.526C681.356 551.944 681.356 546.135 688.002 542.552C694.648 538.97 705.422 538.97 712.068 542.552C718.713 546.135 718.713 551.944 712.068 555.526Z" fill="white"/>
<path d="M712.068 659.444C705.422 663.027 694.648 663.027 688.002 659.444C681.356 655.861 681.356 650.053 688.002 646.47C694.648 642.888 705.422 642.888 712.068 646.47C718.713 650.053 718.713 655.861 712.068 659.444Z" fill="white"/>
<path d="M519.306 659.444C512.661 663.027 501.886 663.027 495.241 659.444C488.595 655.861 488.595 650.053 495.241 646.47C501.886 642.888 512.661 642.888 519.306 646.47C525.952 650.053 525.952 655.861 519.306 659.444Z" fill="white"/>
<path d="M422.926 711.403C416.28 714.986 405.505 714.986 398.86 711.403C392.214 707.82 392.214 702.012 398.86 698.429C405.505 694.846 416.28 694.846 422.926 698.429C429.571 702.012 429.571 707.82 422.926 711.403Z" fill="white"/>
<path d="M326.545 763.362C319.899 766.945 309.125 766.945 302.479 763.362C295.834 759.779 295.834 753.971 302.479 750.388C309.125 746.805 319.899 746.805 326.545 750.388C333.191 753.971 333.191 759.779 326.545 763.362Z" fill="white"/>
<path d="M808.449 711.403C801.803 714.986 791.028 714.986 784.383 711.403C777.737 707.82 777.737 702.012 784.383 698.429C791.028 694.846 801.803 694.846 808.449 698.429C815.094 702.012 815.094 707.82 808.449 711.403Z" fill="white"/>
<path d="M808.449 607.485C801.803 611.068 791.028 611.068 784.383 607.485C777.737 603.902 777.737 598.094 784.383 594.511C791.028 590.929 801.803 590.929 808.449 594.511C815.094 598.094 815.094 603.902 808.449 607.485Z" fill="white"/>
<path d="M904.829 763.362C898.184 766.945 887.409 766.945 880.763 763.362C874.118 759.779 874.118 753.971 880.763 750.388C887.409 746.805 898.184 746.805 904.829 750.388C911.475 753.971 911.475 759.779 904.829 763.362Z" fill="white"/>
<path d="M615.687 711.403C609.042 714.986 598.267 714.986 591.621 711.403C584.976 707.82 584.976 702.012 591.621 698.429C598.267 694.846 609.042 694.846 615.687 698.429C622.333 702.012 622.333 707.82 615.687 711.403Z" fill="white"/>
<path d="M519.306 763.362C512.661 766.945 501.886 766.945 495.241 763.362C488.595 759.779 488.595 753.971 495.241 750.388C501.886 746.805 512.661 746.805 519.306 750.388C525.952 753.971 525.952 759.779 519.306 763.362Z" fill="white"/>
<path d="M422.926 815.321C416.28 818.904 405.505 818.904 398.86 815.321C392.214 811.738 392.214 805.93 398.86 802.347C405.505 798.764 416.28 798.764 422.926 802.347C429.571 805.93 429.571 811.738 422.926 815.321Z" fill="white"/>
<path d="M904.829 659.444C898.184 663.027 887.409 663.027 880.763 659.444C874.118 655.861 874.118 650.053 880.763 646.47C887.409 642.888 898.184 642.888 904.829 646.47C911.475 650.053 911.475 655.861 904.829 659.444Z" fill="white"/>
<path d="M712.068 763.362C705.422 766.945 694.648 766.945 688.002 763.362C681.356 759.779 681.356 753.971 688.002 750.388C694.648 746.805 705.422 746.805 712.068 750.388C718.713 753.971 718.713 759.779 712.068 763.362Z" fill="white"/>
<path d="M615.687 815.321C609.042 818.904 598.267 818.904 591.621 815.321C584.976 811.738 584.976 805.93 591.621 802.347C598.267 798.764 609.042 798.764 615.687 802.347C622.333 805.93 622.333 811.738 615.687 815.321Z" fill="white"/>
<path d="M519.306 867.28C512.661 870.862 501.886 870.862 495.241 867.28C488.595 863.697 488.595 857.889 495.241 854.306C501.886 850.723 512.661 850.723 519.306 854.306C525.952 857.889 525.952 863.697 519.306 867.28Z" fill="white"/>
<path d="M1001.21 711.403C994.564 714.986 983.79 714.986 977.144 711.403C970.499 707.82 970.499 702.012 977.144 698.429C983.79 694.846 994.564 694.846 1001.21 698.429C1007.86 702.012 1007.86 707.82 1001.21 711.403Z" fill="white"/>
<path d="M808.449 815.321C801.803 818.904 791.028 818.904 784.383 815.321C777.737 811.738 777.737 805.93 784.383 802.347C791.028 798.764 801.803 798.764 808.449 802.347C815.094 805.93 815.094 811.738 808.449 815.321Z" fill="white"/>
<path d="M712.068 867.28C705.422 870.862 694.648 870.862 688.002 867.28C681.356 863.697 681.356 857.889 688.002 854.306C694.648 850.723 705.422 850.723 712.068 854.306C718.713 857.889 718.713 863.697 712.068 867.28Z" fill="white"/>
<path d="M615.687 919.239C609.042 922.821 598.267 922.821 591.621 919.239C584.976 915.656 584.976 909.848 591.621 906.265C598.267 902.682 609.042 902.682 615.687 906.265C622.333 909.848 622.333 915.656 615.687 919.239Z" fill="white"/>
<rect y="5.55327" width="595.453" height="602.252" rx="91.0255" transform="matrix(0.869859 0.4933 -0.869859 0.4933 611.558 396.38)" stroke="white" stroke-width="11.2574"/>
<rect y="5.55327" width="595.453" height="602.252" rx="91.0255" transform="matrix(0.869859 0.4933 -0.869859 0.4933 611.498 292.814)" stroke="#F12121" stroke-width="11.2574"/>
<rect width="613.509" height="613.509" rx="96.6542" transform="matrix(0.869859 0.4933 -0.869859 0.4933 603.77 180.204)" fill="#5200D8"/>
<path fill-rule="evenodd" clip-rule="evenodd" d="M639.637 8.81911C617.175 -2.93971 590.376 -2.9397 567.913 8.81913L41.4618 284.415C15.9731 297.758 0 324.149 0 352.919V537.227V824.806V1009.11C0 1037.88 15.973 1064.28 41.4617 1077.62L567.913 1353.21C590.376 1364.97 617.175 1364.97 639.637 1353.21L1166.09 1077.62C1191.58 1064.28 1207.55 1037.88 1207.55 1009.11V824.806V537.227V352.919C1207.55 324.149 1191.58 297.758 1166.09 284.415L639.637 8.81911Z" fill="url(#paint1_linear_18_42398)"/>
<rect width="613.509" height="613.509" rx="96.6542" transform="matrix(0.869859 0.4933 -0.869859 0.4933 603.77 603.574)" fill="#A31BCB"/>
<rect y="5.55327" width="595.453" height="602.252" rx="91.0255" transform="matrix(0.869859 0.4933 -0.869859 0.4933 611.498 499.814)" stroke="#FFD700" stroke-width="11.2574"/>
<path d="M617.458 414.928C610.302 419.716 598.698 419.716 591.542 414.928C584.385 410.141 584.385 402.378 591.542 397.591C598.698 392.803 610.302 392.803 617.458 397.591C624.615 402.378 624.615 410.141 617.458 414.928Z" fill="white"/>
<path d="M513.665 484.363C506.508 489.151 494.905 489.151 487.748 484.363C480.591 479.576 480.591 471.813 487.748 467.026C494.905 462.238 506.508 462.238 513.665 467.026C520.822 471.813 520.822 479.576 513.665 484.363Z" fill="white"/>
<path d="M409.871 553.799C402.715 558.586 391.111 558.586 383.955 553.799C376.798 549.011 376.798 541.249 383.955 536.461C391.111 531.673 402.715 531.673 409.871 536.461C417.028 541.249 417.028 549.011 409.871 553.799Z" fill="white"/>
<path d="M306.078 623.234C298.921 628.021 287.318 628.021 280.161 623.234C273.004 618.446 273.004 610.684 280.161 605.896C287.318 601.108 298.921 601.108 306.078 605.896C313.235 610.684 313.235 618.446 306.078 623.234Z" fill="white"/>
<path d="M202.284 692.669C195.128 697.456 183.524 697.456 176.368 692.669C169.211 687.881 169.211 680.119 176.368 675.331C183.524 670.544 195.128 670.544 202.284 675.331C209.441 680.119 209.441 687.881 202.284 692.669Z" fill="white"/>
<path d="M617.458 553.799C610.302 558.586 598.698 558.586 591.542 553.799C584.385 549.011 584.385 541.249 591.542 536.461C598.698 531.673 610.302 531.673 617.458 536.461C624.615 541.249 624.615 549.011 617.458 553.799Z" fill="white"/>
<path d="M721.252 484.363C714.095 489.151 702.492 489.151 695.335 484.363C688.178 479.576 688.178 471.813 695.335 467.026C702.492 462.238 714.095 462.238 721.252 467.026C728.409 471.813 728.409 479.576 721.252 484.363Z" fill="white"/>
<path d="M721.252 623.234C714.095 628.021 702.492 628.021 695.335 623.234C688.178 618.446 688.178 610.684 695.335 605.896C702.492 601.108 714.095 601.108 721.252 605.896C728.409 610.684 728.409 618.446 721.252 623.234Z" fill="white"/>
<path d="M513.665 623.234C506.508 628.021 494.905 628.021 487.748 623.234C480.591 618.446 480.591 610.684 487.748 605.896C494.905 601.108 506.508 601.108 513.665 605.896C520.822 610.684 520.822 618.446 513.665 623.234Z" fill="white"/>
<path d="M409.871 692.669C402.715 697.456 391.111 697.456 383.955 692.669C376.798 687.881 376.798 680.119 383.955 675.331C391.111 670.544 402.715 670.544 409.871 675.331C417.028 680.119 417.028 687.881 409.871 692.669Z" fill="white"/>
<path d="M306.078 762.104C298.921 766.892 287.318 766.892 280.161 762.104C273.004 757.316 273.004 749.554 280.161 744.766C287.318 739.979 298.921 739.979 306.078 744.766C313.235 749.554 313.235 757.316 306.078 762.104Z" fill="white"/>
<path d="M825.045 692.669C817.889 697.456 806.285 697.456 799.129 692.669C791.972 687.881 791.972 680.119 799.129 675.331C806.285 670.544 817.889 670.544 825.045 675.331C832.202 680.119 832.202 687.881 825.045 692.669Z" fill="white"/>
<path d="M825.045 553.799C817.889 558.586 806.285 558.586 799.129 553.799C791.972 549.011 791.972 541.249 799.129 536.461C806.285 531.673 817.889 531.673 825.045 536.461C832.202 541.249 832.202 549.011 825.045 553.799Z" fill="white"/>
<path d="M928.839 762.104C921.682 766.892 910.079 766.892 902.922 762.104C895.765 757.316 895.765 749.554 902.922 744.766C910.079 739.979 921.682 739.979 928.839 744.766C935.996 749.554 935.996 757.316 928.839 762.104Z" fill="white"/>
<path d="M617.458 692.669C610.302 697.456 598.698 697.456 591.542 692.669C584.385 687.881 584.385 680.119 591.542 675.331C598.698 670.544 610.302 670.544 617.458 675.331C624.615 680.119 624.615 687.881 617.458 692.669Z" fill="white"/>
<path d="M513.665 762.104C506.508 766.892 494.905 766.892 487.748 762.104C480.591 757.316 480.591 749.554 487.748 744.766C494.905 739.979 506.508 739.979 513.665 744.766C520.822 749.554 520.822 757.316 513.665 762.104Z" fill="white"/>
<path d="M409.871 831.539C402.715 836.327 391.111 836.327 383.955 831.539C376.798 826.751 376.798 818.989 383.955 814.201C391.111 809.414 402.715 809.414 409.871 814.201C417.028 818.989 417.028 826.751 409.871 831.539Z" fill="white"/>
<path d="M928.839 623.234C921.682 628.021 910.079 628.021 902.922 623.234C895.765 618.446 895.765 610.684 902.922 605.896C910.079 601.108 921.682 601.108 928.839 605.896C935.996 610.684 935.996 618.446 928.839 623.234Z" fill="white"/>
<path d="M721.252 762.104C714.095 766.892 702.492 766.892 695.335 762.104C688.178 757.316 688.178 749.554 695.335 744.766C702.492 739.979 714.095 739.979 721.252 744.766C728.409 749.554 728.409 757.316 721.252 762.104Z" fill="white"/>
<path d="M617.458 831.539C610.302 836.327 598.698 836.327 591.542 831.539C584.385 826.751 584.385 818.989 591.542 814.201C598.698 809.414 610.302 809.414 617.458 814.201C624.615 818.989 624.615 826.751 617.458 831.539Z" fill="white"/>
<path d="M513.665 900.974C506.508 905.762 494.905 905.762 487.748 900.974C480.591 896.186 480.591 888.424 487.748 883.637C494.905 878.849 506.508 878.849 513.665 883.637C520.822 888.424 520.822 896.186 513.665 900.974Z" fill="white"/>
<path d="M1032.63 692.669C1025.48 697.456 1013.87 697.456 1006.72 692.669C999.559 687.881 999.559 680.119 1006.72 675.331C1013.87 670.544 1025.48 670.544 1032.63 675.331C1039.79 680.119 1039.79 687.881 1032.63 692.669Z" fill="white"/>
<path d="M825.045 831.539C817.889 836.327 806.285 836.327 799.129 831.539C791.972 826.751 791.972 818.989 799.129 814.201C806.285 809.414 817.889 809.414 825.045 814.201C832.202 818.989 832.202 826.751 825.045 831.539Z" fill="white"/>
<path d="M721.252 900.974C714.095 905.762 702.492 905.762 695.335 900.974C688.178 896.186 688.178 888.424 695.335 883.637C702.492 878.849 714.095 878.849 721.252 883.637C728.409 888.424 728.409 896.186 721.252 900.974Z" fill="white"/>
<path d="M617.458 970.409C610.302 975.197 598.698 975.197 591.542 970.409C584.385 965.622 584.385 957.859 591.542 953.072C598.698 948.284 610.302 948.284 617.458 953.072C624.615 957.859 624.615 965.622 617.458 970.409Z" fill="white"/>
<rect y="5.55327" width="595.453" height="602.252" rx="91.0255" transform="matrix(0.869859 0.4933 -0.869859 0.4933 611.498 292.814)" stroke="#0057B8" stroke-width="11.2574"/>
<rect width="613.509" height="613.509" rx="96.6542" transform="matrix(0.869859 0.4933 -0.869859 0.4933 603.77 180.204)" fill="#5200D8"/>
<path d="M211.6 508.95C209.7 507.75 208.75 505.85 208.75 503.25C208.75 500.65 210.65 496.7 214.45 491.4C215.55 489.7 217.3 488.85 219.7 488.85C222.2 488.85 225.55 490.1 229.75 492.6C233.95 495 237.75 496.2 241.15 496.2C247.25 496.2 250.3 495 250.3 492.6C250.3 490.7 246.95 489.3 240.25 488.4C233.95 487.5 227.7 485.15 221.5 481.35C218.6 479.55 216.2 476.75 214.3 472.95C212.4 469.05 211.45 464.45 211.45 459.15C211.45 443.35 222.3 435.45 244 435.45C251.1 435.45 258.4 437.15 265.9 440.55C269.4 442.15 271.15 444.15 271.15 446.55C271.15 448.95 270.05 451.9 267.85 455.4C265.65 458.9 263.4 460.65 261.1 460.65C259.9 460.65 257.65 459.9 254.35 458.4C251.15 456.9 247.65 456.15 243.85 456.15C237.95 456.15 235 457.25 235 459.45C235 462.45 238.4 464.4 245.2 465.3C251.8 466 258.2 467.9 264.4 471C267.3 472.4 269.7 474.85 271.6 478.35C273.6 481.75 274.6 486.05 274.6 491.25C274.6 496.45 273.6 500.9 271.6 504.6C269.7 508.2 267 510.9 263.5 512.7C257.1 515.8 249.05 517.35 239.35 517.35C229.75 517.35 220.5 514.55 211.6 508.95ZM287.389 450.15C287.389 447.85 287.439 446.15 287.539 445.05C287.739 443.85 288.189 442.5 288.889 441C290.289 438.4 294.189 437.1 300.589 437.1C305.389 437.1 308.789 437.95 310.789 439.65C312.489 441.05 313.389 443.2 313.489 446.1C313.589 447.1 313.639 448.55 313.639 450.45V502.95C313.639 505.25 313.539 507 313.339 508.2C313.239 509.3 312.789 510.6 311.989 512.1C310.689 514.7 306.839 516 300.439 516C294.139 516 290.289 514.65 288.889 511.95C288.189 510.45 287.739 509.15 287.539 508.05C287.439 506.95 287.389 505.2 287.389 502.8V450.15ZM311.989 422.4C311.289 423.8 309.989 424.8 308.089 425.4C306.189 426 303.639 426.3 300.439 426.3C297.339 426.3 294.839 426 292.939 425.4C291.039 424.8 289.689 423.75 288.889 422.25C288.189 420.75 287.739 419.45 287.539 418.35C287.439 417.15 287.389 415.4 287.389 413.1C287.389 410.8 287.439 409.1 287.539 408C287.739 406.8 288.189 405.5 288.889 404.1C290.289 401.4 294.189 400.05 300.589 400.05C306.889 400.05 310.689 401.4 311.989 404.1C312.789 405.6 313.239 406.95 313.339 408.15C313.539 409.25 313.639 410.95 313.639 413.25C313.639 415.55 313.539 417.3 313.339 418.5C313.239 419.6 312.789 420.9 311.989 422.4ZM374.521 463.5L364.771 462.9V483.6C364.771 486.3 365.171 488.25 365.971 489.45C366.871 490.65 368.471 491.25 370.771 491.25C373.171 491.25 374.971 491.35 376.171 491.55C377.471 491.65 378.821 492.1 380.221 492.9C382.521 494.2 383.671 497.55 383.671 502.95C383.671 509.25 382.271 513.1 379.471 514.5C377.971 515.2 376.621 515.65 375.421 515.85C374.321 515.95 372.671 516 370.471 516C360.071 516 352.171 513.65 346.771 508.95C341.371 504.25 338.671 496.3 338.671 485.1V462.9C336.771 463.2 334.721 463.35 332.521 463.35C330.321 463.35 328.471 462.5 326.971 460.8C325.571 459.1 324.871 456.2 324.871 452.1C324.871 448 325.121 445.05 325.621 443.25C326.121 441.35 326.821 440 327.721 439.2C329.321 437.9 331.321 437.25 333.721 437.25L338.671 437.85V422.4C338.671 420.1 338.721 418.4 338.821 417.3C339.021 416.2 339.521 415 340.321 413.7C341.621 411.2 345.471 409.95 351.871 409.95C358.671 409.95 362.721 411.8 364.021 415.5C364.521 417.1 364.771 419.65 364.771 423.15V437.85C369.171 437.45 372.471 437.25 374.671 437.25C376.971 437.25 378.671 437.35 379.771 437.55C380.971 437.65 382.321 438.1 383.821 438.9C386.421 440.2 387.721 444.05 387.721 450.45C387.721 456.75 386.371 460.6 383.671 462C382.171 462.7 380.821 463.15 379.621 463.35C378.521 463.45 376.821 463.5 374.521 463.5ZM472.274 467.1C472.274 473.2 470.724 477.75 467.624 480.75C464.624 483.65 461.274 485.1 457.574 485.1H422.024C422.024 487.9 423.674 490.25 426.974 492.15C430.274 494.05 433.574 495 436.874 495C442.674 495 447.224 494.4 450.524 493.2L452.174 492.6C454.574 491.5 456.574 490.95 458.174 490.95C461.374 490.95 464.124 493.2 466.424 497.7C467.724 500.4 468.374 502.7 468.374 504.6C468.374 513.5 457.724 517.95 436.424 517.95C429.024 517.95 422.424 516.7 416.624 514.2C410.924 511.6 406.474 508.2 403.274 504C396.974 495.9 393.824 486.85 393.824 476.85C393.824 464.25 397.874 454.2 405.974 446.7C414.174 439.1 424.374 435.3 436.574 435.3C450.474 435.3 460.674 440.2 467.174 450C470.574 455.2 472.274 460.9 472.274 467.1ZM440.624 471.45C444.424 471.45 446.324 469.85 446.324 466.65C446.324 464.35 445.424 462.5 443.624 461.1C441.924 459.7 439.424 459 436.124 459C432.924 459 429.724 460.35 426.524 463.05C423.324 465.65 421.724 468.45 421.724 471.45H440.624ZM485.661 508.95C483.761 507.75 482.811 505.85 482.811 503.25C482.811 500.65 484.711 496.7 488.511 491.4C489.611 489.7 491.361 488.85 493.761 488.85C496.261 488.85 499.611 490.1 503.811 492.6C508.011 495 511.811 496.2 515.211 496.2C521.311 496.2 524.361 495 524.361 492.6C524.361 490.7 521.011 489.3 514.311 488.4C508.011 487.5 501.761 485.15 495.561 481.35C492.661 479.55 490.261 476.75 488.361 472.95C486.461 469.05 485.511 464.45 485.511 459.15C485.511 443.35 496.361 435.45 518.061 435.45C525.161 435.45 532.461 437.15 539.961 440.55C543.461 442.15 545.211 444.15 545.211 446.55C545.211 448.95 544.111 451.9 541.911 455.4C539.711 458.9 537.461 460.65 535.161 460.65C533.961 460.65 531.711 459.9 528.411 458.4C525.211 456.9 521.711 456.15 517.911 456.15C512.011 456.15 509.061 457.25 509.061 459.45C509.061 462.45 512.461 464.4 519.261 465.3C525.861 466 532.261 467.9 538.461 471C541.361 472.4 543.761 474.85 545.661 478.35C547.661 481.75 548.661 486.05 548.661 491.25C548.661 496.45 547.661 500.9 545.661 504.6C543.761 508.2 541.061 510.9 537.561 512.7C531.161 515.8 523.111 517.35 513.411 517.35C503.811 517.35 494.561 514.55 485.661 508.95ZM637.649 467.1C637.649 473.2 636.099 477.75 632.999 480.75C629.999 483.65 626.649 485.1 622.949 485.1H587.399C587.399 487.9 589.049 490.25 592.349 492.15C595.649 494.05 598.949 495 602.249 495C608.049 495 612.599 494.4 615.899 493.2L617.549 492.6C619.949 491.5 621.949 490.95 623.549 490.95C626.749 490.95 629.499 493.2 631.799 497.7C633.099 500.4 633.749 502.7 633.749 504.6C633.749 513.5 623.099 517.95 601.799 517.95C594.399 517.95 587.799 516.7 581.999 514.2C576.299 511.6 571.849 508.2 568.649 504C562.349 495.9 559.199 486.85 559.199 476.85C559.199 464.25 563.249 454.2 571.349 446.7C579.549 439.1 589.749 435.3 601.949 435.3C615.849 435.3 626.049 440.2 632.549 450C635.949 455.2 637.649 460.9 637.649 467.1ZM605.999 471.45C609.799 471.45 611.699 469.85 611.699 466.65C611.699 464.35 610.799 462.5 608.999 461.1C607.299 459.7 604.799 459 601.499 459C598.299 459 595.099 460.35 591.899 463.05C588.699 465.65 587.099 468.45 587.099 471.45H605.999ZM651.036 508.95C649.136 507.75 648.186 505.85 648.186 503.25C648.186 500.65 650.086 496.7 653.886 491.4C654.986 489.7 656.736 488.85 659.136 488.85C661.636 488.85 664.986 490.1 669.186 492.6C673.386 495 677.186 496.2 680.586 496.2C686.686 496.2 689.736 495 689.736 492.6C689.736 490.7 686.386 489.3 679.686 488.4C673.386 487.5 667.136 485.15 660.936 481.35C658.036 479.55 655.636 476.75 653.736 472.95C651.836 469.05 650.886 464.45 650.886 459.15C650.886 443.35 661.736 435.45 683.436 435.45C690.536 435.45 697.836 437.15 705.336 440.55C708.836 442.15 710.586 444.15 710.586 446.55C710.586 448.95 709.486 451.9 707.286 455.4C705.086 458.9 702.836 460.65 700.536 460.65C699.336 460.65 697.086 459.9 693.786 458.4C690.586 456.9 687.086 456.15 683.286 456.15C677.386 456.15 674.436 457.25 674.436 459.45C674.436 462.45 677.836 464.4 684.636 465.3C691.236 466 697.636 467.9 703.836 471C706.736 472.4 709.136 474.85 711.036 478.35C713.036 481.75 714.036 486.05 714.036 491.25C714.036 496.45 713.036 500.9 711.036 504.6C709.136 508.2 706.436 510.9 702.936 512.7C696.536 515.8 688.486 517.35 678.786 517.35C669.186 517.35 659.936 514.55 651.036 508.95ZM727.424 508.95C725.524 507.75 724.574 505.85 724.574 503.25C724.574 500.65 726.474 496.7 730.274 491.4C731.374 489.7 733.124 488.85 735.524 488.85C738.024 488.85 741.374 490.1 745.574 492.6C749.774 495 753.574 496.2 756.974 496.2C763.074 496.2 766.124 495 766.124 492.6C766.124 490.7 762.774 489.3 756.074 488.4C749.774 487.5 743.524 485.15 737.324 481.35C734.424 479.55 732.024 476.75 730.124 472.95C728.224 469.05 727.274 464.45 727.274 459.15C727.274 443.35 738.124 435.45 759.824 435.45C766.924 435.45 774.224 437.15 781.724 440.55C785.224 442.15 786.974 444.15 786.974 446.55C786.974 448.95 785.874 451.9 783.674 455.4C781.474 458.9 779.224 460.65 776.924 460.65C775.724 460.65 773.474 459.9 770.174 458.4C766.974 456.9 763.474 456.15 759.674 456.15C753.774 456.15 750.824 457.25 750.824 459.45C750.824 462.45 754.224 464.4 761.024 465.3C767.624 466 774.024 467.9 780.224 471C783.124 472.4 785.524 474.85 787.424 478.35C789.424 481.75 790.424 486.05 790.424 491.25C790.424 496.45 789.424 500.9 787.424 504.6C785.524 508.2 782.824 510.9 779.324 512.7C772.924 515.8 764.874 517.35 755.174 517.35C745.574 517.35 736.324 514.55 727.424 508.95ZM826.463 491.25C828.163 492.95 829.013 496.45 829.013 501.75V502.35C829.013 504.75 828.913 506.55 828.713 507.75C828.613 508.85 828.113 510.2 827.213 511.8C825.713 514.7 821.913 516.15 815.813 516.15C809.813 516.15 805.813 515.2 803.813 513.3C801.913 511.4 800.963 507.8 800.963 502.5V501.9C800.963 499.6 801.013 497.85 801.113 496.65C801.313 495.45 801.813 494.1 802.613 492.6C804.113 489.6 807.863 488.1 813.863 488.1C819.963 488.1 824.163 489.15 826.463 491.25ZM866.559 476.55C866.559 480.75 867.959 484.05 870.759 486.45C873.559 488.75 876.509 489.9 879.609 489.9C882.809 489.9 885.759 489 888.459 487.2C891.259 485.3 893.509 484.35 895.209 484.35C898.209 484.35 901.859 487 906.159 492.3C908.459 495.2 909.609 497.8 909.609 500.1C909.609 503.9 906.859 507.45 901.359 510.75C895.659 514.75 888.659 516.75 880.359 516.75C871.059 516.75 862.109 513.4 853.509 506.7C849.409 503.5 846.059 499.25 843.459 493.95C840.859 488.55 839.559 482.65 839.559 476.25C839.559 469.75 840.859 463.9 843.459 458.7C846.059 453.4 849.409 449.15 853.509 445.95C861.809 439.35 870.659 436.05 880.059 436.05C883.859 436.05 887.559 436.6 891.159 437.7C894.759 438.7 897.409 439.7 899.109 440.7L901.509 442.2C903.309 443.4 904.709 444.35 905.709 445.05C908.309 447.05 909.609 449.35 909.609 451.95C909.609 454.45 908.559 457.3 906.459 460.5C902.859 466 899.409 468.75 896.109 468.75C894.209 468.75 891.509 467.65 888.009 465.45C886.209 463.75 883.609 462.9 880.209 462.9C876.909 462.9 873.809 464.1 870.909 466.5C868.009 468.9 866.559 472.25 866.559 476.55ZM973.599 445.35C974.199 439.75 978.149 436.95 985.449 436.95C989.349 436.95 992.249 437.25 994.149 437.85C996.049 438.45 997.349 439.5 998.049 441C998.849 442.5 999.299 443.85 999.399 445.05C999.599 446.15 999.699 447.85 999.699 450.15V502.65C999.699 504.95 999.599 506.7 999.399 507.9C999.299 509 998.899 510.3 998.199 511.8C996.799 514.4 993.349 515.7 987.849 515.7C982.449 515.7 978.799 515.05 976.899 513.75C975.099 512.35 974.049 510.35 973.749 507.75C970.049 513.05 963.849 515.7 955.149 515.7C946.549 515.7 938.549 511.75 931.149 503.85C923.749 495.95 920.049 486.8 920.049 476.4C920.049 465.9 923.749 456.75 931.149 448.95C938.649 441.05 946.849 437.1 955.749 437.1C959.149 437.1 962.249 437.7 965.049 438.9C967.849 440.1 969.799 441.25 970.899 442.35C971.999 443.35 972.899 444.35 973.599 445.35ZM946.299 476.55C946.299 479.85 947.599 482.85 950.199 485.55C952.799 488.15 955.949 489.45 959.649 489.45C963.349 489.45 966.399 488.1 968.799 485.4C971.299 482.7 972.549 479.75 972.549 476.55C972.549 473.25 971.349 470.2 968.949 467.4C966.649 464.6 963.499 463.2 959.499 463.2C955.599 463.2 952.399 464.6 949.899 467.4C947.499 470.2 946.299 473.25 946.299 476.55Z" fill="#EE26DA"/>
<defs>
<linearGradient id="paint0_linear_18_42398" x1="603.775" y1="0" x2="603.775" y2="1362.03" gradientUnits="userSpaceOnUse">
<stop offset="0.0001" stop-color="#B804ED"/>
<stop offset="1" stop-color="#280A3C"/>
</linearGradient>
<linearGradient id="paint1_linear_18_42398" x1="603.775" y1="0" x2="603.775" y2="1362.03" gradientUnits="userSpaceOnUse">
<stop offset="0.0001" stop-color="#B804ED"/>
<stop offset="1" stop-color="#280A3C"/>
</linearGradient>
</defs>
</svg>
