<svg width="1208" height="1363" viewBox="0 0 1208 1363" fill="none" xmlns="http://www.w3.org/2000/svg">
<path fill-rule="evenodd" clip-rule="evenodd" d="M639.637 8.81911C617.175 -2.93971 590.376 -2.9397 567.913 8.81913L41.4618 284.415C15.9731 297.758 0 324.149 0 352.919V537.227V824.806V1009.11C0 1037.88 15.973 1064.28 41.4617 1077.62L567.913 1353.21C590.376 1364.97 617.175 1364.97 639.637 1353.21L1166.09 1077.62C1191.58 1064.28 1207.55 1037.88 1207.55 1009.11V824.806V537.227V352.919C1207.55 324.149 1191.58 297.758 1166.09 284.415L639.637 8.81911Z" fill="url(#paint0_linear_23_42458)"/>
<rect width="613.509" height="613.509" rx="96.6542" transform="matrix(0.869859 0.4933 -0.869859 0.4933 603.77 603.574)" fill="#A31BCB"/>
<rect y="5.55327" width="595.453" height="602.252" rx="91.0255" transform="matrix(0.869859 0.4933 -0.869859 0.4933 611.498 499.814)" stroke="#FFD700" stroke-width="11.2574"/>
<path d="M615.687 503.567C609.042 507.15 598.267 507.15 591.621 503.567C584.976 499.985 584.976 494.176 591.621 490.593C598.267 487.011 609.042 487.011 615.687 490.593C622.333 494.176 622.333 499.985 615.687 503.567Z" fill="white"/>
<path d="M519.306 555.526C512.661 559.109 501.886 559.109 495.241 555.526C488.595 551.944 488.595 546.135 495.241 542.552C501.886 538.97 512.661 538.97 519.306 542.552C525.952 546.135 525.952 551.944 519.306 555.526Z" fill="white"/>
<path d="M422.926 607.485C416.28 611.068 405.505 611.068 398.86 607.485C392.214 603.902 392.214 598.094 398.86 594.511C405.505 590.929 416.28 590.929 422.926 594.511C429.571 598.094 429.571 603.902 422.926 607.485Z" fill="white"/>
<path d="M326.545 659.444C319.899 663.027 309.125 663.027 302.479 659.444C295.834 655.861 295.834 650.053 302.479 646.47C309.125 642.888 319.899 642.888 326.545 646.47C333.191 650.053 333.191 655.861 326.545 659.444Z" fill="white"/>
<path d="M230.164 711.403C223.519 714.986 212.744 714.986 206.098 711.403C199.453 707.82 199.453 702.012 206.098 698.429C212.744 694.846 223.519 694.846 230.164 698.429C236.81 702.012 236.81 707.82 230.164 711.403Z" fill="white"/>
<path d="M615.687 607.485C609.042 611.068 598.267 611.068 591.621 607.485C584.976 603.902 584.976 598.094 591.621 594.511C598.267 590.929 609.042 590.929 615.687 594.511C622.333 598.094 622.333 603.902 615.687 607.485Z" fill="white"/>
<path d="M712.068 555.526C705.422 559.109 694.648 559.109 688.002 555.526C681.356 551.944 681.356 546.135 688.002 542.552C694.648 538.97 705.422 538.97 712.068 542.552C718.713 546.135 718.713 551.944 712.068 555.526Z" fill="white"/>
<path d="M712.068 659.444C705.422 663.027 694.648 663.027 688.002 659.444C681.356 655.861 681.356 650.053 688.002 646.47C694.648 642.888 705.422 642.888 712.068 646.47C718.713 650.053 718.713 655.861 712.068 659.444Z" fill="white"/>
<path d="M519.306 659.444C512.661 663.027 501.886 663.027 495.241 659.444C488.595 655.861 488.595 650.053 495.241 646.47C501.886 642.888 512.661 642.888 519.306 646.47C525.952 650.053 525.952 655.861 519.306 659.444Z" fill="white"/>
<path d="M422.926 711.403C416.28 714.986 405.505 714.986 398.86 711.403C392.214 707.82 392.214 702.012 398.86 698.429C405.505 694.846 416.28 694.846 422.926 698.429C429.571 702.012 429.571 707.82 422.926 711.403Z" fill="white"/>
<path d="M326.545 763.362C319.899 766.945 309.125 766.945 302.479 763.362C295.834 759.779 295.834 753.971 302.479 750.388C309.125 746.805 319.899 746.805 326.545 750.388C333.191 753.971 333.191 759.779 326.545 763.362Z" fill="white"/>
<path d="M808.449 711.403C801.803 714.986 791.028 714.986 784.383 711.403C777.737 707.82 777.737 702.012 784.383 698.429C791.028 694.846 801.803 694.846 808.449 698.429C815.094 702.012 815.094 707.82 808.449 711.403Z" fill="white"/>
<path d="M808.449 607.485C801.803 611.068 791.028 611.068 784.383 607.485C777.737 603.902 777.737 598.094 784.383 594.511C791.028 590.929 801.803 590.929 808.449 594.511C815.094 598.094 815.094 603.902 808.449 607.485Z" fill="white"/>
<path d="M904.829 763.362C898.184 766.945 887.409 766.945 880.763 763.362C874.118 759.779 874.118 753.971 880.763 750.388C887.409 746.805 898.184 746.805 904.829 750.388C911.475 753.971 911.475 759.779 904.829 763.362Z" fill="white"/>
<path d="M615.687 711.403C609.042 714.986 598.267 714.986 591.621 711.403C584.976 707.82 584.976 702.012 591.621 698.429C598.267 694.846 609.042 694.846 615.687 698.429C622.333 702.012 622.333 707.82 615.687 711.403Z" fill="white"/>
<path d="M519.306 763.362C512.661 766.945 501.886 766.945 495.241 763.362C488.595 759.779 488.595 753.971 495.241 750.388C501.886 746.805 512.661 746.805 519.306 750.388C525.952 753.971 525.952 759.779 519.306 763.362Z" fill="white"/>
<path d="M422.926 815.321C416.28 818.904 405.505 818.904 398.86 815.321C392.214 811.738 392.214 805.93 398.86 802.347C405.505 798.764 416.28 798.764 422.926 802.347C429.571 805.93 429.571 811.738 422.926 815.321Z" fill="white"/>
<path d="M904.829 659.444C898.184 663.027 887.409 663.027 880.763 659.444C874.118 655.861 874.118 650.053 880.763 646.47C887.409 642.888 898.184 642.888 904.829 646.47C911.475 650.053 911.475 655.861 904.829 659.444Z" fill="white"/>
<path d="M712.068 763.362C705.422 766.945 694.648 766.945 688.002 763.362C681.356 759.779 681.356 753.971 688.002 750.388C694.648 746.805 705.422 746.805 712.068 750.388C718.713 753.971 718.713 759.779 712.068 763.362Z" fill="white"/>
<path d="M615.687 815.321C609.042 818.904 598.267 818.904 591.621 815.321C584.976 811.738 584.976 805.93 591.621 802.347C598.267 798.764 609.042 798.764 615.687 802.347C622.333 805.93 622.333 811.738 615.687 815.321Z" fill="white"/>
<path d="M519.306 867.28C512.661 870.862 501.886 870.862 495.241 867.28C488.595 863.697 488.595 857.889 495.241 854.306C501.886 850.723 512.661 850.723 519.306 854.306C525.952 857.889 525.952 863.697 519.306 867.28Z" fill="white"/>
<path d="M1001.21 711.403C994.564 714.986 983.79 714.986 977.144 711.403C970.499 707.82 970.499 702.012 977.144 698.429C983.79 694.846 994.564 694.846 1001.21 698.429C1007.86 702.012 1007.86 707.82 1001.21 711.403Z" fill="white"/>
<path d="M808.449 815.321C801.803 818.904 791.028 818.904 784.383 815.321C777.737 811.738 777.737 805.93 784.383 802.347C791.028 798.764 801.803 798.764 808.449 802.347C815.094 805.93 815.094 811.738 808.449 815.321Z" fill="white"/>
<path d="M712.068 867.28C705.422 870.862 694.648 870.862 688.002 867.28C681.356 863.697 681.356 857.889 688.002 854.306C694.648 850.723 705.422 850.723 712.068 854.306C718.713 857.889 718.713 863.697 712.068 867.28Z" fill="white"/>
<path d="M615.687 919.239C609.042 922.821 598.267 922.821 591.621 919.239C584.976 915.656 584.976 909.848 591.621 906.265C598.267 902.682 609.042 902.682 615.687 906.265C622.333 909.848 622.333 915.656 615.687 919.239Z" fill="white"/>
<rect y="5.55327" width="595.453" height="602.252" rx="91.0255" transform="matrix(0.869859 0.4933 -0.869859 0.4933 611.498 292.814)" stroke="#0057B8" stroke-width="11.2574"/>
<rect width="613.509" height="613.509" rx="96.6542" transform="matrix(0.869859 0.4933 -0.869859 0.4933 603.77 180.204)" fill="#5200D8"/>
<defs>
<linearGradient id="paint0_linear_23_42458" x1="603.775" y1="0" x2="603.775" y2="1362.03" gradientUnits="userSpaceOnUse">
<stop stop-color="#FF0303"/>
<stop offset="0.5" stop-color="#353E1C" stop-opacity="0"/>
</linearGradient>
</defs>
</svg>
