<svg width="1208" height="1363" viewBox="0 0 1208 1363" fill="none" xmlns="http://www.w3.org/2000/svg">
<path fill-rule="evenodd" clip-rule="evenodd" d="M639.637 8.81911C617.175 -2.93971 590.376 -2.9397 567.913 8.81913L41.4618 284.415C15.9731 297.758 0 324.149 0 352.919V537.227V824.806V1009.11C0 1037.88 15.973 1064.28 41.4618 1077.62L567.913 1353.21C590.376 1364.97 617.175 1364.97 639.637 1353.21L1166.09 1077.62C1191.58 1064.28 1207.55 1037.88 1207.55 1009.11V824.806V537.227V352.919C1207.55 324.149 1191.58 297.758 1166.09 284.415L639.637 8.81911Z" fill="url(#paint0_linear_24_42565)"/>
<rect width="613.509" height="613.509" rx="96.6542" transform="matrix(0.869859 0.4933 -0.869859 0.4933 603.77 603.573)" fill="#1AAD8A"/>
<rect y="5.55327" width="595.453" height="602.252" rx="91.0255" transform="matrix(0.869859 0.4933 -0.869859 0.4933 611.498 499.814)" stroke="white" stroke-width="11.2574"/>
<path d="M617.399 462.124C610.275 466.499 598.725 466.499 591.601 462.124C584.478 457.749 584.478 450.656 591.601 446.281C598.725 441.906 610.275 441.906 617.399 446.281C624.522 450.656 624.522 457.749 617.399 462.124Z" fill="white"/>
<path d="M514.084 525.574C506.96 529.948 495.41 529.948 488.287 525.574C481.163 521.199 481.163 514.105 488.287 509.731C495.41 505.356 506.96 505.356 514.084 509.731C521.208 514.105 521.208 521.199 514.084 525.574Z" fill="white"/>
<path d="M410.769 589.023C403.646 593.398 392.096 593.398 384.972 589.023C377.848 584.648 377.848 577.555 384.972 573.18C392.096 568.805 403.646 568.805 410.769 573.18C417.893 577.555 417.893 584.648 410.769 589.023Z" fill="white"/>
<path d="M307.455 652.472C300.331 656.847 288.781 656.847 281.657 652.472C274.534 648.097 274.534 641.004 281.657 636.629C288.781 632.254 300.331 632.254 307.455 636.629C314.578 641.004 314.578 648.097 307.455 652.472Z" fill="white"/>
<path d="M204.14 715.921C197.016 720.296 185.466 720.296 178.343 715.921C171.219 711.547 171.219 704.453 178.343 700.078C185.466 695.704 197.016 695.704 204.14 700.078C211.264 704.453 211.264 711.547 204.14 715.921Z" fill="white"/>
<path d="M617.399 589.023C610.275 593.398 598.725 593.398 591.601 589.023C584.478 584.648 584.478 577.555 591.601 573.18C598.725 568.805 610.275 568.805 617.399 573.18C624.522 577.555 624.522 584.648 617.399 589.023Z" fill="white"/>
<path d="M720.713 525.574C713.589 529.948 702.04 529.948 694.916 525.574C687.792 521.199 687.792 514.105 694.916 509.731C702.04 505.356 713.589 505.356 720.713 509.731C727.837 514.105 727.837 521.199 720.713 525.574Z" fill="white"/>
<path d="M720.713 652.472C713.589 656.847 702.04 656.847 694.916 652.472C687.792 648.097 687.792 641.004 694.916 636.629C702.04 632.254 713.589 632.254 720.713 636.629C727.837 641.004 727.837 648.097 720.713 652.472Z" fill="white"/>
<path d="M514.084 652.472C506.96 656.847 495.41 656.847 488.287 652.472C481.163 648.097 481.163 641.004 488.287 636.629C495.41 632.254 506.96 632.254 514.084 636.629C521.208 641.004 521.208 648.097 514.084 652.472Z" fill="white"/>
<path d="M410.769 715.921C403.646 720.296 392.096 720.296 384.972 715.921C377.848 711.547 377.848 704.453 384.972 700.078C392.096 695.704 403.646 695.704 410.769 700.078C417.893 704.453 417.893 711.547 410.769 715.921Z" fill="white"/>
<path d="M307.455 779.371C300.331 783.746 288.781 783.746 281.657 779.371C274.534 774.996 274.534 767.903 281.657 763.528C288.781 759.153 300.331 759.153 307.455 763.528C314.578 767.903 314.578 774.996 307.455 779.371Z" fill="white"/>
<path d="M824.028 715.921C816.904 720.296 805.354 720.296 798.231 715.921C791.107 711.547 791.107 704.453 798.231 700.078C805.354 695.704 816.904 695.704 824.028 700.078C831.152 704.453 831.152 711.547 824.028 715.921Z" fill="white"/>
<path d="M824.028 589.023C816.904 593.398 805.354 593.398 798.231 589.023C791.107 584.648 791.107 577.555 798.231 573.18C805.354 568.805 816.904 568.805 824.028 573.18C831.152 577.555 831.152 584.648 824.028 589.023Z" fill="white"/>
<path d="M927.343 779.371C920.219 783.746 908.669 783.746 901.545 779.371C894.422 774.996 894.422 767.903 901.545 763.528C908.669 759.153 920.219 759.153 927.343 763.528C934.466 767.903 934.466 774.996 927.343 779.371Z" fill="white"/>
<path d="M617.399 715.921C610.275 720.296 598.725 720.296 591.601 715.921C584.478 711.547 584.478 704.453 591.601 700.078C598.725 695.704 610.275 695.704 617.399 700.078C624.522 704.453 624.522 711.547 617.399 715.921Z" fill="white"/>
<path d="M514.084 779.371C506.96 783.746 495.41 783.746 488.287 779.371C481.163 774.996 481.163 767.903 488.287 763.528C495.41 759.153 506.96 759.153 514.084 763.528C521.208 767.903 521.208 774.996 514.084 779.371Z" fill="white"/>
<path d="M410.769 842.82C403.646 847.195 392.096 847.195 384.972 842.82C377.848 838.445 377.848 831.352 384.972 826.977C392.096 822.602 403.646 822.602 410.769 826.977C417.893 831.352 417.893 838.445 410.769 842.82Z" fill="white"/>
<path d="M927.343 652.472C920.219 656.847 908.669 656.847 901.545 652.472C894.422 648.097 894.422 641.004 901.545 636.629C908.669 632.254 920.219 632.254 927.343 636.629C934.466 641.004 934.466 648.097 927.343 652.472Z" fill="white"/>
<path d="M720.713 779.371C713.589 783.746 702.04 783.746 694.916 779.371C687.792 774.996 687.792 767.903 694.916 763.528C702.04 759.153 713.589 759.153 720.713 763.528C727.837 767.903 727.837 774.996 720.713 779.371Z" fill="white"/>
<path d="M617.399 842.82C610.275 847.195 598.725 847.195 591.601 842.82C584.478 838.445 584.478 831.352 591.601 826.977C598.725 822.602 610.275 822.602 617.399 826.977C624.522 831.352 624.522 838.445 617.399 842.82Z" fill="white"/>
<path d="M514.084 906.269C506.96 910.644 495.41 910.644 488.287 906.269C481.163 901.895 481.163 894.801 488.287 890.426C495.41 886.052 506.96 886.052 514.084 890.426C521.208 894.801 521.208 901.895 514.084 906.269Z" fill="white"/>
<path d="M1030.66 715.921C1023.53 720.296 1011.98 720.296 1004.86 715.921C997.736 711.547 997.736 704.453 1004.86 700.078C1011.98 695.704 1023.53 695.704 1030.66 700.078C1037.78 704.453 1037.78 711.547 1030.66 715.921Z" fill="white"/>
<path d="M824.028 842.82C816.904 847.195 805.354 847.195 798.231 842.82C791.107 838.445 791.107 831.352 798.231 826.977C805.354 822.602 816.904 822.602 824.028 826.977C831.152 831.352 831.152 838.445 824.028 842.82Z" fill="white"/>
<path d="M720.713 906.269C713.589 910.644 702.04 910.644 694.916 906.269C687.792 901.895 687.792 894.801 694.916 890.426C702.04 886.052 713.589 886.052 720.713 890.426C727.837 894.801 727.837 901.895 720.713 906.269Z" fill="white"/>
<path d="M617.399 969.719C610.275 974.094 598.725 974.094 591.601 969.719C584.478 965.344 584.478 958.251 591.601 953.876C598.725 949.501 610.275 949.501 617.399 953.876C624.522 958.251 624.522 965.344 617.399 969.719Z" fill="white"/>
<rect y="5.55327" width="595.453" height="602.252" rx="91.0255" transform="matrix(0.869859 0.4933 -0.869859 0.4933 611.498 292.814)" stroke="white" stroke-width="11.2574"/>
<rect width="613.509" height="613.509" rx="96.6542" transform="matrix(0.869859 0.4933 -0.869859 0.4933 603.77 180.204)" fill="#5EFFFF"/>
<defs>
<linearGradient id="paint0_linear_24_42565" x1="603.775" y1="0" x2="603.775" y2="1362.03" gradientUnits="userSpaceOnUse">
<stop stop-color="#00FFD1"/>
<stop offset="0.601042" stop-color="#121704" stop-opacity="0"/>
</linearGradient>
</defs>
</svg>
