<?xml version="1.0" encoding="UTF-8" standalone="no"?>
<!DOCTYPE svg PUBLIC "-//W3C//DTD SVG 1.1//EN" "http://www.w3.org/Graphics/SVG/1.1/DTD/svg11.dtd">
<svg xmlns="http://www.w3.org/2000/svg" version="1.1" viewBox="0 0 478 541">
<g stroke-width="2.00" fill="none" stroke-linecap="butt">
<path stroke="#808080" vector-effect="non-scaling-stroke" d="
  M 227.34 269.46
  C 252.51 220.49 277.59 171.33 302.60 122.43
  C 302.74 122.15 302.75 121.82 302.61 121.54
  L 248.21 8.88
  C 247.73 7.90 247.25 7.90 246.77 8.88
  L 119.11 268.56
  C 118.78 269.22 119.27 270.00 120.01 270.00
  L 226.45 270.00
  C 226.82 270.00 227.17 269.79 227.34 269.46"
/>
<path stroke="#024356" vector-effect="non-scaling-stroke" d="
  M 234.93 420.97
  C 272.09 351.09 309.20 281.18 346.58 211.43
  C 346.73 211.15 346.73 210.81 346.59 210.51
  L 312.83 141.58
  C 312.25 140.40 311.65 140.39 311.04 141.55
  L 165.25 420.04
  C 164.90 420.70 165.39 421.50 166.14 421.50
  L 234.04 421.50
  C 234.41 421.50 234.75 421.30 234.93 420.97"
/>
<path stroke="#095165" vector-effect="non-scaling-stroke" d="
  M 111.08 284.50
  C 110.96 284.50 110.85 284.57 110.79 284.68
  L 42.60 421.04
  C 42.50 421.25 42.65 421.50 42.89 421.50
  L 145.40 421.50
  C 145.52 421.50 145.62 421.43 145.68 421.33
  L 216.79 284.97
  C 216.90 284.75 216.74 284.50 216.50 284.50
  L 111.08 284.50"
/>
<path stroke="#808080" vector-effect="non-scaling-stroke" d="
  M 28.07 499.62
  C 21.50 499.01 15.29 497.18 9.42 494.15
  C 8.91 493.89 8.28 494.11 8.05 494.64
  L 1.59 509.41
  C 1.37 509.91 1.58 510.49 2.07 510.72
  C 16.81 517.72 41.22 520.93 54.42 509.94
  C 65.28 500.91 64.35 483.53 50.61 477.60
  C 44.61 475.02 38.92 474.07 29.26 471.97
  C 27.31 471.55 24.60 470.30 24.69 467.93
  C 24.82 464.43 31.56 463.87 34.58 464.08
  C 40.43 464.50 45.95 466.03 51.16 468.66
  C 51.68 468.92 52.31 468.69 52.54 468.15
  L 58.64 453.35
  C 58.84 452.85 58.62 452.28 58.13 452.06
  C 47.15 447.04 35.61 445.61 23.50 447.78
  C 12.01 449.83 1.96 457.74 2.34 470.04
  C 2.86 487.12 21.86 489.70 35.03 492.15
  C 36.28 492.38 37.63 493.23 39.08 494.72
  C 39.25 494.89 39.36 495.13 39.37 495.37
  C 39.63 500.50 31.06 499.90 28.07 499.62"
/>
<path stroke="#808080" vector-effect="non-scaling-stroke" d="
  M 256.69 491.56
  C 259.59 492.13 267.94 495.58 261.01 499.05
  C 259.53 499.79 256.71 499.99 252.56 499.65
  C 245.84 499.10 239.48 497.28 233.48 494.19
  C 232.97 493.92 232.34 494.14 232.11 494.67
  L 225.61 509.45
  C 225.39 509.95 225.62 510.53 226.11 510.76
  C 237.94 516.22 250.34 518.08 263.32 516.33
  C 276.74 514.52 288.22 504.54 285.37 490.04
  C 282.82 477.08 266.95 474.72 255.31 472.48
  C 246.94 470.86 246.59 464.57 255.28 464.19
  C 262.29 463.88 268.93 465.38 275.22 468.70
  C 275.74 468.98 276.39 468.75 276.61 468.20
  L 282.61 453.56
  C 282.79 453.09 282.61 452.57 282.18 452.32
  C 279.77 450.91 277.05 449.80 274.01 448.98
  C 256.86 444.36 223.99 446.04 226.61 472.21
  C 228.08 486.88 245.38 489.34 256.69 491.56"
/>
<path stroke="#808080" vector-effect="non-scaling-stroke" d="
  M 187.60 498.47
  C 187.41 498.47 187.25 498.31 187.25 498.12
  L 187.25 490.08
  C 187.25 489.89 187.41 489.73 187.60 489.73
  L 215.24 489.76
  C 215.43 489.76 215.59 489.60 215.59 489.41
  L 215.52 473.60
  C 215.52 473.41 215.36 473.25 215.17 473.25
  L 187.60 473.25
  C 187.41 473.25 187.25 473.09 187.25 472.90
  L 187.25 465.57
  C 187.25 465.38 187.41 465.22 187.60 465.22
  L 219.30 465.55
  C 219.49 465.55 219.65 465.39 219.65 465.20
  L 219.62 448.60
  C 219.62 448.41 219.46 448.25 219.27 448.25
  L 165.35 448.25
  C 165.16 448.25 165.00 448.41 165.00 448.60
  L 165.00 515.15
  C 165.00 515.34 165.16 515.50 165.35 515.50
  L 220.40 515.50
  C 220.59 515.50 220.75 515.34 220.75 515.15
  L 220.75 498.84
  C 220.75 498.65 220.59 498.49 220.40 498.49
  L 187.60 498.47"
/>
<path stroke="#808080" vector-effect="non-scaling-stroke" d="
  M 354.15 470.53
  C 355.00 493.08 391.98 488.80 391.21 495.99
  C 390.99 498.04 389.75 499.18 387.48 499.41
  C 378.14 500.36 369.39 498.59 361.23 494.08
  C 360.71 493.80 360.07 494.02 359.83 494.56
  L 353.35 509.38
  C 353.13 509.87 353.35 510.45 353.84 510.68
  C 366.43 516.62 379.63 518.37 393.42 515.93
  C 417.09 511.74 422.31 481.13 395.75 475.21
  C 386.55 473.16 380.73 471.80 378.29 471.13
  C 378.07 471.07 377.88 470.94 377.75 470.76
  C 374.53 466.40 378.79 464.50 382.40 464.27
  C 389.57 463.81 396.41 465.26 402.90 468.63
  C 403.42 468.90 404.06 468.66 404.29 468.12
  L 410.35 453.47
  C 410.55 452.98 410.33 452.41 409.85 452.18
  C 399.60 447.33 388.78 445.68 377.39 447.25
  C 364.87 448.97 353.63 456.74 354.15 470.53"
/>
<path stroke="#808080" vector-effect="non-scaling-stroke" d="
  M 315.23 498.45
  C 315.04 498.45 314.89 498.30 314.90 498.11
  L 315.04 490.04
  C 315.05 489.86 315.19 489.72 315.37 489.72
  L 343.03 489.76
  C 343.21 489.76 343.36 489.61 343.36 489.43
  L 343.27 473.58
  C 343.27 473.40 343.12 473.25 342.94 473.25
  L 315.15 473.25
  C 314.96 473.25 314.81 473.10 314.82 472.91
  L 315.04 465.52
  C 315.05 465.34 315.19 465.20 315.37 465.20
  L 346.92 465.57
  C 347.10 465.57 347.25 465.42 347.25 465.24
  L 347.25 448.58
  C 347.25 448.40 347.10 448.25 346.92 448.25
  L 293.09 448.25
  C 292.91 448.25 292.76 448.40 292.76 448.58
  L 292.71 515.17
  C 292.71 515.35 292.86 515.50 293.04 515.50
  L 348.17 515.50
  C 348.35 515.50 348.50 515.35 348.50 515.17
  L 348.50 498.84
  C 348.50 498.66 348.35 498.51 348.17 498.51
  L 315.23 498.45"
/>
<path stroke="#808080" vector-effect="non-scaling-stroke" d="
  M 453.09 498.36
  C 450.87 499.39 448.50 499.87 445.98 499.81
  C 438.32 499.64 431.10 497.75 424.31 494.15
  C 423.79 493.88 423.15 494.10 422.92 494.63
  L 416.51 509.21
  C 416.30 509.67 416.48 510.21 416.91 510.47
  C 427.12 516.50 442.06 517.90 453.32 516.42
  C 465.77 514.80 477.48 506.62 476.57 493.00
  C 475.51 477.17 457.54 474.28 445.33 472.48
  C 443.60 472.23 442.05 471.55 440.69 470.45
  C 437.20 467.60 441.60 464.68 444.54 464.38
  C 452.07 463.60 459.21 465.06 465.94 468.75
  C 466.46 469.04 467.12 468.80 467.35 468.25
  L 473.50 453.31
  C 473.71 452.81 473.48 452.24 472.99 452.02
  C 461.79 446.91 450.10 445.52 437.91 447.84
  C 425.58 450.18 415.93 458.72 417.36 472.20
  C 419.03 487.77 438.51 489.59 450.17 492.22
  C 453.62 493.00 454.76 494.87 453.59 497.82
  C 453.50 498.06 453.32 498.25 453.09 498.36"
/>
<path stroke="#808080" vector-effect="non-scaling-stroke" d="
  M 91.25 448.57
  C 91.25 448.40 91.11 448.26 90.94 448.26
  L 68.94 448.26
  C 68.77 448.26 68.63 448.40 68.63 448.57
  L 68.63 515.19
  C 68.63 515.36 68.77 515.50 68.94 515.50
  L 90.94 515.50
  C 91.11 515.50 91.25 515.36 91.25 515.19
  L 91.25 448.57"
/>
<path stroke="#808080" vector-effect="non-scaling-stroke" d="
  M 139.28 466.34
  C 139.28 466.15 139.43 466.00 139.62 466.00
  L 158.66 466.00
  C 158.85 466.00 159.00 465.85 159.00 465.66
  L 159.00 448.59
  C 159.00 448.40 158.85 448.25 158.66 448.25
  L 97.34 448.25
  C 97.15 448.25 97.00 448.40 97.00 448.59
  L 97.00 465.61
  C 97.00 465.80 97.15 465.95 97.34 465.95
  L 116.41 465.96
  C 116.60 465.96 116.75 466.11 116.75 466.30
  L 116.75 515.16
  C 116.75 515.35 116.90 515.50 117.09 515.50
  L 138.91 515.50
  C 139.10 515.50 139.25 515.35 139.25 515.16
  L 139.28 466.34"
/>
</g>
<path fill="#000000" d="
  M 305.96 122.48
  C 280.30 172.45 254.83 222.50 229.13 272.46
  C 228.96 272.79 228.61 273.00 228.24 273.00
  L 115.21 273.00
  C 114.47 273.00 113.98 272.22 114.31 271.56
  C 154.42 189.93 194.51 108.28 234.58 26.63
  C 238.67 18.30 242.75 10.14 246.84 2.13
  C 247.33 1.17 247.80 1.17 248.27 2.14
  L 305.97 121.59
  C 306.10 121.87 306.10 122.20 305.96 122.48
  Z
  M 227.34 269.46
  C 252.51 220.49 277.59 171.33 302.60 122.43
  C 302.74 122.15 302.75 121.82 302.61 121.54
  L 248.21 8.88
  C 247.73 7.90 247.25 7.90 246.77 8.88
  L 119.11 268.56
  C 118.78 269.22 119.27 270.00 120.01 270.00
  L 226.45 270.00
  C 226.82 270.00 227.17 269.79 227.34 269.46
  Z"
/>
<path fill="#ffffff" d="
  M 302.60 122.43
  C 277.59 171.33 252.51 220.49 227.34 269.46
  C 227.17 269.79 226.82 270.00 226.45 270.00
  L 120.01 270.00
  C 119.27 270.00 118.78 269.22 119.11 268.56
  L 246.77 8.88
  C 247.25 7.90 247.73 7.90 248.21 8.88
  L 302.61 121.54
  C 302.75 121.82 302.74 122.15 302.60 122.43
  Z"
/>
<path fill="#000000" d="
  M 312.41 133.90
  L 350.09 210.83
  C 350.15 210.95 350.14 211.09 350.08 211.20
  L 236.52 424.28
  C 236.44 424.42 236.31 424.50 236.15 424.50
  L 160.21 424.50
  C 159.90 424.50 159.70 424.17 159.84 423.90
  L 311.67 133.89
  C 311.83 133.59 312.26 133.60 312.41 133.90
  Z
  M 234.93 420.97
  C 272.09 351.09 309.20 281.18 346.58 211.43
  C 346.73 211.15 346.73 210.81 346.59 210.51
  L 312.83 141.58
  C 312.25 140.40 311.65 140.39 311.04 141.55
  L 165.25 420.04
  C 164.90 420.70 165.39 421.50 166.14 421.50
  L 234.04 421.50
  C 234.41 421.50 234.75 421.30 234.93 420.97
  Z"
/>
<path fill="#0485ac" d="
  M 346.58 211.43
  C 309.20 281.18 272.09 351.09 234.93 420.97
  C 234.75 421.30 234.41 421.50 234.04 421.50
  L 166.14 421.50
  C 165.39 421.50 164.90 420.70 165.25 420.04
  L 311.04 141.55
  C 311.65 140.39 312.25 140.40 312.83 141.58
  L 346.59 210.51
  C 346.73 210.81 346.73 211.15 346.58 211.43
  Z"
/>
<path fill="#000000" d="
  M 355.37 221.36
  L 455.13 423.95
  C 455.25 424.20 455.07 424.50 454.79 424.50
  L 248.64 424.50
  C 248.35 424.50 248.17 424.20 248.30 423.94
  L 354.69 221.35
  C 354.84 221.08 355.23 221.08 355.37 221.36
  Z"
/>
<path fill="#000000" d="
  M 109.39 281.50
  L 221.28 281.50
  C 221.59 281.50 221.80 281.83 221.65 282.11
  L 147.52 424.27
  C 147.45 424.41 147.30 424.50 147.15 424.50
  L 38.30 424.50
  C 37.99 424.50 37.78 424.17 37.92 423.89
  L 109.01 281.73
  C 109.09 281.59 109.23 281.50 109.39 281.50
  Z
  M 111.08 284.50
  C 110.96 284.50 110.85 284.57 110.79 284.68
  L 42.60 421.04
  C 42.50 421.25 42.65 421.50 42.89 421.50
  L 145.40 421.50
  C 145.52 421.50 145.62 421.43 145.68 421.33
  L 216.79 284.97
  C 216.90 284.75 216.74 284.50 216.50 284.50
  L 111.08 284.50
  Z"
/>
<path fill="#11a2c9" d="
  M 111.08 284.50
  L 216.50 284.50
  C 216.74 284.50 216.90 284.75 216.79 284.97
  L 145.68 421.33
  C 145.62 421.43 145.52 421.50 145.40 421.50
  L 42.89 421.50
  C 42.65 421.50 42.50 421.25 42.60 421.04
  L 110.79 284.68
  C 110.85 284.57 110.96 284.50 111.08 284.50
  Z"
/>
<path fill="#000000" d="
  M -0.15 511.52
  L 0.00 508.19
  L 7.24 491.90
  C 7.48 491.36 8.14 491.14 8.66 491.44
  C 16.41 495.96 24.73 498.05 33.61 497.70
  C 38.16 497.53 38.48 495.07 33.91 494.02
  C 21.17 491.07 2.58 489.05 0.53 472.64
  C -1.32 457.82 9.77 448.19 23.26 445.78
  C 36.37 443.43 48.85 445.21 60.70 451.12
  C 61.17 451.36 61.38 451.91 61.18 452.40
  L 53.62 470.76
  C 53.40 471.30 52.76 471.53 52.24 471.27
  C 44.94 467.53 36.00 464.70 27.78 466.83
  C 27.55 466.89 27.35 467.04 27.21 467.24
  C 26.39 468.45 26.84 469.29 28.55 469.75
  C 42.11 473.35 64.43 474.49 63.86 494.60
  C 63.52 506.85 53.80 515.58 42.03 517.83
  C 27.16 520.68 13.10 518.57 -0.15 511.52
  Z
  M 28.07 499.62
  C 21.50 499.01 15.29 497.18 9.42 494.15
  C 8.91 493.89 8.28 494.11 8.05 494.64
  L 1.59 509.41
  C 1.37 509.91 1.58 510.49 2.07 510.72
  C 16.81 517.72 41.22 520.93 54.42 509.94
  C 65.28 500.91 64.35 483.53 50.61 477.60
  C 44.61 475.02 38.92 474.07 29.26 471.97
  C 27.31 471.55 24.60 470.30 24.69 467.93
  C 24.82 464.43 31.56 463.87 34.58 464.08
  C 40.43 464.50 45.95 466.03 51.16 468.66
  C 51.68 468.92 52.31 468.69 52.54 468.15
  L 58.64 453.35
  C 58.84 452.85 58.62 452.28 58.13 452.06
  C 47.15 447.04 35.61 445.61 23.50 447.78
  C 12.01 449.83 1.96 457.74 2.34 470.04
  C 2.86 487.12 21.86 489.70 35.03 492.15
  C 36.28 492.38 37.63 493.23 39.08 494.72
  C 39.25 494.89 39.36 495.13 39.37 495.37
  C 39.63 500.50 31.06 499.90 28.07 499.62
  Z"
/>
<path fill="#000000" d="
  M 189.24 492.47
  L 189.26 495.44
  C 189.26 495.99 189.71 496.44 190.26 496.44
  L 221.75 496.53
  C 222.30 496.53 222.75 496.98 222.75 497.53
  L 222.75 509.09
  C 222.75 509.31 222.93 509.49 223.15 509.50
  L 223.50 509.50
  C 223.51 509.50 223.55 509.41 223.62 509.23
  L 231.21 491.76
  C 231.45 491.20 232.13 490.98 232.65 491.30
  C 240.56 496.14 249.17 498.24 258.48 497.59
  C 260.90 497.43 263.19 495.23 259.45 494.41
  C 246.05 491.48 226.22 489.37 224.51 471.66
  C 223.31 459.32 231.94 449.49 244.09 446.52
  C 258.14 443.07 271.70 444.61 284.75 451.14
  C 285.22 451.38 285.42 451.94 285.22 452.42
  L 277.67 470.76
  C 277.45 471.30 276.81 471.53 276.29 471.27
  C 272.57 469.37 268.73 467.90 264.78 466.87
  C 260.43 465.74 256.10 465.73 251.77 466.86
  C 251.56 466.91 251.38 467.04 251.24 467.21
  C 249.45 469.49 255.93 470.78 257.30 470.97
  C 269.12 472.63 284.39 476.43 287.35 489.26
  C 290.69 503.77 279.47 515.48 265.44 517.95
  C 254.00 519.96 242.76 519.08 231.71 515.32
  C 228.98 514.39 226.50 513.21 224.29 511.78
  C 223.26 511.11 222.74 511.39 222.75 512.62
  L 222.75 516.50
  C 222.75 517.05 222.30 517.50 221.75 517.50
  L 164.00 517.50
  C 163.45 517.50 163.00 517.05 163.00 516.50
  L 163.00 447.25
  C 163.00 446.70 163.45 446.25 164.00 446.25
  L 220.58 446.25
  C 221.13 446.25 221.57 446.70 221.58 447.25
  L 221.67 466.52
  C 221.68 467.08 221.22 467.53 220.66 467.53
  L 190.28 467.26
  C 189.73 467.25 189.28 467.70 189.27 468.25
  L 189.24 470.24
  C 189.23 470.80 189.68 471.25 190.24 471.25
  L 216.61 471.25
  C 217.16 471.25 217.61 471.70 217.61 472.25
  L 217.66 490.61
  C 217.66 491.16 217.21 491.61 216.66 491.61
  L 190.25 491.47
  C 189.69 491.46 189.24 491.91 189.24 492.47
  Z
  M 256.69 491.56
  C 259.59 492.13 267.94 495.58 261.01 499.05
  C 259.53 499.79 256.71 499.99 252.56 499.65
  C 245.84 499.10 239.48 497.28 233.48 494.19
  C 232.97 493.92 232.34 494.14 232.11 494.67
  L 225.61 509.45
  C 225.39 509.95 225.62 510.53 226.11 510.76
  C 237.94 516.22 250.34 518.08 263.32 516.33
  C 276.74 514.52 288.22 504.54 285.37 490.04
  C 282.82 477.08 266.95 474.72 255.31 472.48
  C 246.94 470.86 246.59 464.57 255.28 464.19
  C 262.29 463.88 268.93 465.38 275.22 468.70
  C 275.74 468.98 276.39 468.75 276.61 468.20
  L 282.61 453.56
  C 282.79 453.09 282.61 452.57 282.18 452.32
  C 279.77 450.91 277.05 449.80 274.01 448.98
  C 256.86 444.36 223.99 446.04 226.61 472.21
  C 228.08 486.88 245.38 489.34 256.69 491.56
  Z
  M 187.60 498.47
  C 187.41 498.47 187.25 498.31 187.25 498.12
  L 187.25 490.08
  C 187.25 489.89 187.41 489.73 187.60 489.73
  L 215.24 489.76
  C 215.43 489.76 215.59 489.60 215.59 489.41
  L 215.52 473.60
  C 215.52 473.41 215.36 473.25 215.17 473.25
  L 187.60 473.25
  C 187.41 473.25 187.25 473.09 187.25 472.90
  L 187.25 465.57
  C 187.25 465.38 187.41 465.22 187.60 465.22
  L 219.30 465.55
  C 219.49 465.55 219.65 465.39 219.65 465.20
  L 219.62 448.60
  C 219.62 448.41 219.46 448.25 219.27 448.25
  L 165.35 448.25
  C 165.16 448.25 165.00 448.41 165.00 448.60
  L 165.00 515.15
  C 165.00 515.34 165.16 515.50 165.35 515.50
  L 220.40 515.50
  C 220.59 515.50 220.75 515.34 220.75 515.15
  L 220.75 498.84
  C 220.75 498.65 220.59 498.49 220.40 498.49
  L 187.60 498.47
  Z"
/>
<path fill="#000000" d="
  M 351.13 509.58
  C 351.20 509.51 351.26 509.42 351.31 509.31
  C 353.83 503.26 356.38 497.43 358.95 491.84
  C 359.19 491.32 359.83 491.11 360.34 491.39
  C 368.86 496.10 377.42 498.14 386.03 497.52
  C 391.04 497.16 389.01 494.73 386.43 494.18
  C 376.61 492.06 361.89 490.09 355.57 481.17
  C 350.52 474.04 351.10 463.23 356.30 456.31
  C 368.43 440.18 396.75 443.32 412.43 451.16
  C 412.90 451.40 413.10 451.96 412.90 452.44
  L 405.27 470.92
  C 405.04 471.48 404.36 471.71 403.84 471.40
  C 397.30 467.53 390.21 465.80 382.57 466.21
  C 380.63 466.31 375.30 468.43 380.87 469.87
  C 392.84 472.96 411.03 473.83 414.79 488.71
  C 418.97 505.28 405.11 516.92 389.78 518.64
  C 376.41 520.13 363.80 517.89 351.95 511.90
  C 351.29 511.57 350.51 512.04 350.50 512.78
  L 350.45 516.51
  C 350.44 517.06 350.00 517.50 349.45 517.50
  L 291.76 517.50
  C 291.20 517.50 290.75 517.05 290.75 516.50
  L 290.74 447.25
  C 290.74 446.70 291.19 446.25 291.74 446.25
  L 348.25 446.25
  C 348.80 446.25 349.25 446.70 349.25 447.25
  L 349.25 466.41
  C 349.25 466.97 348.80 467.42 348.25 467.41
  L 317.96 467.33
  C 317.44 467.33 317.00 467.74 316.96 468.26
  L 316.83 470.18
  C 316.79 470.76 317.25 471.25 317.83 471.25
  L 344.46 471.25
  C 345.01 471.25 345.46 471.70 345.46 472.25
  L 345.44 490.58
  C 345.44 491.13 344.99 491.58 344.44 491.58
  L 318.15 491.46
  C 317.75 491.46 317.38 491.71 317.23 492.08
  C 316.72 493.31 316.65 494.54 317.03 495.79
  C 317.15 496.21 317.54 496.50 317.98 496.50
  L 349.53 496.50
  C 350.08 496.50 350.53 496.95 350.53 497.51
  L 350.43 509.29
  C 350.43 509.95 350.66 510.05 351.13 509.58
  Z
  M 354.15 470.53
  C 355.00 493.08 391.98 488.80 391.21 495.99
  C 390.99 498.04 389.75 499.18 387.48 499.41
  C 378.14 500.36 369.39 498.59 361.23 494.08
  C 360.71 493.80 360.07 494.02 359.83 494.56
  L 353.35 509.38
  C 353.13 509.87 353.35 510.45 353.84 510.68
  C 366.43 516.62 379.63 518.37 393.42 515.93
  C 417.09 511.74 422.31 481.13 395.75 475.21
  C 386.55 473.16 380.73 471.80 378.29 471.13
  C 378.07 471.07 377.88 470.94 377.75 470.76
  C 374.53 466.40 378.79 464.50 382.40 464.27
  C 389.57 463.81 396.41 465.26 402.90 468.63
  C 403.42 468.90 404.06 468.66 404.29 468.12
  L 410.35 453.47
  C 410.55 452.98 410.33 452.41 409.85 452.18
  C 399.60 447.33 388.78 445.68 377.39 447.25
  C 364.87 448.97 353.63 456.74 354.15 470.53
  Z
  M 315.23 498.45
  C 315.04 498.45 314.89 498.30 314.90 498.11
  L 315.04 490.04
  C 315.05 489.86 315.19 489.72 315.37 489.72
  L 343.03 489.76
  C 343.21 489.76 343.36 489.61 343.36 489.43
  L 343.27 473.58
  C 343.27 473.40 343.12 473.25 342.94 473.25
  L 315.15 473.25
  C 314.96 473.25 314.81 473.10 314.82 472.91
  L 315.04 465.52
  C 315.05 465.34 315.19 465.20 315.37 465.20
  L 346.92 465.57
  C 347.10 465.57 347.25 465.42 347.25 465.24
  L 347.25 448.58
  C 347.25 448.40 347.10 448.25 346.92 448.25
  L 293.09 448.25
  C 292.91 448.25 292.76 448.40 292.76 448.58
  L 292.71 515.17
  C 292.71 515.35 292.86 515.50 293.04 515.50
  L 348.17 515.50
  C 348.35 515.50 348.50 515.35 348.50 515.17
  L 348.50 498.84
  C 348.50 498.66 348.35 498.51 348.17 498.51
  L 315.23 498.45
  Z"
/>
<path fill="#000000" d="
  M 478.00 488.31
  L 478.00 499.81
  C 470.37 525.92 431.95 520.64 414.31 511.51
  C 413.84 511.27 413.64 510.70 413.85 510.22
  L 422.03 491.75
  C 422.27 491.20 422.95 490.99 423.47 491.31
  C 431.22 496.16 439.82 498.26 449.25 497.60
  C 451.52 497.44 454.10 495.52 450.22 494.47
  C 434.70 490.29 409.96 488.09 415.99 463.68
  C 418.30 454.30 426.97 448.25 435.96 446.30
  C 449.77 443.29 462.97 444.90 475.57 451.11
  C 476.04 451.34 476.26 451.90 476.06 452.39
  L 468.38 470.91
  C 468.15 471.47 467.48 471.69 466.96 471.39
  C 460.39 467.65 451.61 464.98 444.03 466.48
  C 441.25 467.02 440.74 469.33 444.06 470.04
  C 458.60 473.14 472.37 473.96 478.00 488.31
  Z
  M 453.09 498.36
  C 450.87 499.39 448.50 499.87 445.98 499.81
  C 438.32 499.64 431.10 497.75 424.31 494.15
  C 423.79 493.88 423.15 494.10 422.92 494.63
  L 416.51 509.21
  C 416.30 509.67 416.48 510.21 416.91 510.47
  C 427.12 516.50 442.06 517.90 453.32 516.42
  C 465.77 514.80 477.48 506.62 476.57 493.00
  C 475.51 477.17 457.54 474.28 445.33 472.48
  C 443.60 472.23 442.05 471.55 440.69 470.45
  C 437.20 467.60 441.60 464.68 444.54 464.38
  C 452.07 463.60 459.21 465.06 465.94 468.75
  C 466.46 469.04 467.12 468.80 467.35 468.25
  L 473.50 453.31
  C 473.71 452.81 473.48 452.24 472.99 452.02
  C 461.79 446.91 450.10 445.52 437.91 447.84
  C 425.58 450.18 415.93 458.72 417.36 472.20
  C 419.03 487.77 438.51 489.59 450.17 492.22
  C 453.62 493.00 454.76 494.87 453.59 497.82
  C 453.50 498.06 453.32 498.25 453.09 498.36
  Z"
/>
<path fill="#000000" d="
  M 93.25 516.99
  C 93.25 517.27 93.02 517.50 92.74 517.50
  L 67.26 517.50
  C 66.98 517.50 66.75 517.27 66.75 516.99
  L 66.75 446.77
  C 66.75 446.49 66.98 446.26 67.26 446.26
  L 92.74 446.26
  C 93.02 446.26 93.25 446.49 93.25 446.77
  L 93.25 516.99
  Z
  M 91.25 448.57
  C 91.25 448.40 91.11 448.26 90.94 448.26
  L 68.94 448.26
  C 68.77 448.26 68.63 448.40 68.63 448.57
  L 68.63 515.19
  C 68.63 515.36 68.77 515.50 68.94 515.50
  L 90.94 515.50
  C 91.11 515.50 91.25 515.36 91.25 515.19
  L 91.25 448.57
  Z"
/>
<path fill="#000000" d="
  M 95.00 467.21
  L 95.00 447.03
  C 95.00 446.60 95.35 446.25 95.78 446.25
  L 160.21 446.25
  C 160.64 446.25 160.99 446.60 160.99 447.03
  L 161.00 467.05
  C 161.00 467.48 160.65 467.83 160.22 467.83
  L 142.28 467.77
  C 141.85 467.77 141.50 468.12 141.50 468.55
  L 141.45 516.72
  C 141.45 517.15 141.10 517.50 140.67 517.50
  L 115.53 517.50
  C 115.10 517.50 114.75 517.15 114.75 516.72
  L 114.75 468.45
  C 114.75 468.02 114.39 467.67 113.96 467.67
  L 95.79 467.99
  C 95.36 467.99 95.00 467.64 95.00 467.21
  Z
  M 139.28 466.34
  C 139.28 466.15 139.43 466.00 139.62 466.00
  L 158.66 466.00
  C 158.85 466.00 159.00 465.85 159.00 465.66
  L 159.00 448.59
  C 159.00 448.40 158.85 448.25 158.66 448.25
  L 97.34 448.25
  C 97.15 448.25 97.00 448.40 97.00 448.59
  L 97.00 465.61
  C 97.00 465.80 97.15 465.95 97.34 465.95
  L 116.41 465.96
  C 116.60 465.96 116.75 466.11 116.75 466.30
  L 116.75 515.16
  C 116.75 515.35 116.90 515.50 117.09 515.50
  L 138.91 515.50
  C 139.10 515.50 139.25 515.35 139.25 515.16
  L 139.28 466.34
  Z"
/>
<path fill="#ffffff" d="
  M 28.07 499.62
  C 31.06 499.90 39.63 500.50 39.37 495.37
  C 39.36 495.13 39.25 494.89 39.08 494.72
  C 37.63 493.23 36.28 492.38 35.03 492.15
  C 21.86 489.70 2.86 487.12 2.34 470.04
  C 1.96 457.74 12.01 449.83 23.50 447.78
  C 35.61 445.61 47.15 447.04 58.13 452.06
  C 58.62 452.28 58.84 452.85 58.64 453.35
  L 52.54 468.15
  C 52.31 468.69 51.68 468.92 51.16 468.66
  C 45.95 466.03 40.43 464.50 34.58 464.08
  C 31.56 463.87 24.82 464.43 24.69 467.93
  C 24.60 470.30 27.31 471.55 29.26 471.97
  C 38.92 474.07 44.61 475.02 50.61 477.60
  C 64.35 483.53 65.28 500.91 54.42 509.94
  C 41.22 520.93 16.81 517.72 2.07 510.72
  C 1.58 510.49 1.37 509.91 1.59 509.41
  L 8.05 494.64
  C 8.28 494.11 8.91 493.89 9.42 494.15
  C 15.29 497.18 21.50 499.01 28.07 499.62
  Z"
/>
<path fill="#ffffff" d="
  M 256.69 491.56
  C 245.38 489.34 228.08 486.88 226.61 472.21
  C 223.99 446.04 256.86 444.36 274.01 448.98
  C 277.05 449.80 279.77 450.91 282.18 452.32
  C 282.61 452.57 282.79 453.09 282.61 453.56
  L 276.61 468.20
  C 276.39 468.75 275.74 468.98 275.22 468.70
  C 268.93 465.38 262.29 463.88 255.28 464.19
  C 246.59 464.57 246.94 470.86 255.31 472.48
  C 266.95 474.72 282.82 477.08 285.37 490.04
  C 288.22 504.54 276.74 514.52 263.32 516.33
  C 250.34 518.08 237.94 516.22 226.11 510.76
  C 225.62 510.53 225.39 509.95 225.61 509.45
  L 232.11 494.67
  C 232.34 494.14 232.97 493.92 233.48 494.19
  C 239.48 497.28 245.84 499.10 252.56 499.65
  C 256.71 499.99 259.53 499.79 261.01 499.05
  C 267.94 495.58 259.59 492.13 256.69 491.56
  Z"
/>
<path fill="#ffffff" d="
  M 391.21 495.99
  C 391.98 488.80 355.00 493.08 354.15 470.53
  C 353.63 456.74 364.87 448.97 377.39 447.25
  C 388.78 445.68 399.60 447.33 409.85 452.18
  C 410.33 452.41 410.55 452.98 410.35 453.47
  L 404.29 468.12
  C 404.06 468.66 403.42 468.90 402.90 468.63
  C 396.41 465.26 389.57 463.81 382.40 464.27
  C 378.79 464.50 374.53 466.40 377.75 470.76
  C 377.88 470.94 378.07 471.07 378.29 471.13
  C 380.73 471.80 386.55 473.16 395.75 475.21
  C 422.31 481.13 417.09 511.74 393.42 515.93
  C 379.63 518.37 366.43 516.62 353.84 510.68
  C 353.35 510.45 353.13 509.87 353.35 509.38
  L 359.83 494.56
  C 360.07 494.02 360.71 493.80 361.23 494.08
  C 369.39 498.59 378.14 500.36 387.48 499.41
  C 389.75 499.18 390.99 498.04 391.21 495.99
  Z"
/>
<path fill="#ffffff" d="
  M 453.59 497.82
  C 454.76 494.87 453.62 493.00 450.17 492.22
  C 438.51 489.59 419.03 487.77 417.36 472.20
  C 415.93 458.72 425.58 450.18 437.91 447.84
  C 450.10 445.52 461.79 446.91 472.99 452.02
  C 473.48 452.24 473.71 452.81 473.50 453.31
  L 467.35 468.25
  C 467.12 468.80 466.46 469.04 465.94 468.75
  C 459.21 465.06 452.07 463.60 444.54 464.38
  C 441.60 464.68 437.20 467.60 440.69 470.45
  C 442.05 471.55 443.60 472.23 445.33 472.48
  C 457.54 474.28 475.51 477.17 476.57 493.00
  C 477.48 506.62 465.77 514.80 453.32 516.42
  C 442.06 517.90 427.12 516.50 416.91 510.47
  C 416.48 510.21 416.30 509.67 416.51 509.21
  L 422.92 494.63
  C 423.15 494.10 423.79 493.88 424.31 494.15
  C 431.10 497.75 438.32 499.64 445.98 499.81
  C 448.50 499.87 450.87 499.39 453.09 498.36
  C 453.32 498.25 453.50 498.06 453.59 497.82
  Z"
/>
<rect fill="#ffffff" x="68.63" y="448.26" width="22.62" height="67.24" rx="0.31"/>
<path fill="#ffffff" d="
  M 139.28 466.34
  L 139.25 515.16
  C 139.25 515.35 139.10 515.50 138.91 515.50
  L 117.09 515.50
  C 116.90 515.50 116.75 515.35 116.75 515.16
  L 116.75 466.30
  C 116.75 466.11 116.60 465.96 116.41 465.96
  L 97.34 465.95
  C 97.15 465.95 97.00 465.80 97.00 465.61
  L 97.00 448.59
  C 97.00 448.40 97.15 448.25 97.34 448.25
  L 158.66 448.25
  C 158.85 448.25 159.00 448.40 159.00 448.59
  L 159.00 465.66
  C 159.00 465.85 158.85 466.00 158.66 466.00
  L 139.62 466.00
  C 139.43 466.00 139.28 466.15 139.28 466.34
  Z"
/>
<path fill="#ffffff" d="
  M 187.60 498.47
  L 220.40 498.49
  C 220.59 498.49 220.75 498.65 220.75 498.84
  L 220.75 515.15
  C 220.75 515.34 220.59 515.50 220.40 515.50
  L 165.35 515.50
  C 165.16 515.50 165.00 515.34 165.00 515.15
  L 165.00 448.60
  C 165.00 448.41 165.16 448.25 165.35 448.25
  L 219.27 448.25
  C 219.46 448.25 219.62 448.41 219.62 448.60
  L 219.65 465.20
  C 219.65 465.39 219.49 465.55 219.30 465.55
  L 187.60 465.22
  C 187.41 465.22 187.25 465.38 187.25 465.57
  L 187.25 472.90
  C 187.25 473.09 187.41 473.25 187.60 473.25
  L 215.17 473.25
  C 215.36 473.25 215.52 473.41 215.52 473.60
  L 215.59 489.41
  C 215.59 489.60 215.43 489.76 215.24 489.76
  L 187.60 489.73
  C 187.41 489.73 187.25 489.89 187.25 490.08
  L 187.25 498.12
  C 187.25 498.31 187.41 498.47 187.60 498.47
  Z"
/>
<path fill="#ffffff" d="
  M 315.23 498.45
  L 348.17 498.51
  C 348.35 498.51 348.50 498.66 348.50 498.84
  L 348.50 515.17
  C 348.50 515.35 348.35 515.50 348.17 515.50
  L 293.04 515.50
  C 292.86 515.50 292.71 515.35 292.71 515.17
  L 292.76 448.58
  C 292.76 448.40 292.91 448.25 293.09 448.25
  L 346.92 448.25
  C 347.10 448.25 347.25 448.40 347.25 448.58
  L 347.25 465.24
  C 347.25 465.42 347.10 465.57 346.92 465.57
  L 315.37 465.20
  C 315.19 465.20 315.05 465.34 315.04 465.52
  L 314.82 472.91
  C 314.81 473.10 314.96 473.25 315.15 473.25
  L 342.94 473.25
  C 343.12 473.25 343.27 473.40 343.27 473.58
  L 343.36 489.43
  C 343.36 489.61 343.21 489.76 343.03 489.76
  L 315.37 489.72
  C 315.19 489.72 315.05 489.86 315.04 490.04
  L 314.90 498.11
  C 314.89 498.30 315.04 498.45 315.23 498.45
  Z"
/>
</svg>
