<?xml version="1.0" encoding="UTF-8" standalone="no"?>
<!DOCTYPE svg PUBLIC "-//W3C//DTD SVG 1.1//EN" "http://www.w3.org/Graphics/SVG/1.1/DTD/svg11.dtd">
<svg xmlns="http://www.w3.org/2000/svg" version="1.1" viewBox="0 0 1840 1139">
<g stroke-width="2.00" fill="none" stroke-linecap="butt">
<path stroke="#fbcc8c" vector-effect="non-scaling-stroke" d="
  M 1312.28 577.10
  C 1313.17 580.49 1313.82 582.95 1313.96 586.78
  C 1314.03 588.64 1314.27 590.48 1314.68 592.31
  C 1315.00 593.74 1314.96 597.98 1314.57 605.01
  C 1314.56 605.19 1314.60 605.37 1314.68 605.53
  C 1314.92 606.00 1315.04 606.48 1315.03 606.99
  C 1315.02 607.55 1315.47 608.00 1316.03 608.00
  L 1378.32 608.00
  C 1378.86 608.00 1379.31 607.56 1379.32 607.02
  C 1379.53 595.71 1379.10 585.45 1378.03 576.25
  C 1371.72 521.53 1333.11 497.16 1281.49 493.54
  C 1267.96 492.59 1255.49 492.79 1244.08 494.13
  C 1240.07 494.60 1234.89 494.08 1230.01 496.45
  C 1229.83 496.53 1229.63 496.57 1229.44 496.54
  C 1225.02 495.96 1221.87 498.02 1218.68 498.90
  C 1182.55 508.95 1155.10 533.44 1144.72 570.20
  C 1144.35 571.52 1143.52 572.48 1143.40 574.16
  C 1143.14 578.01 1141.84 581.71 1141.36 585.57
  C 1135.98 628.87 1144.00 669.33 1181.56 695.71
  C 1193.99 704.44 1207.42 711.43 1221.84 716.66
  C 1239.89 723.21 1258.02 729.57 1276.21 735.73
  C 1303.29 744.90 1321.96 762.74 1325.13 792.19
  C 1326.01 800.38 1325.97 807.72 1325.01 814.23
  C 1320.59 844.12 1297.80 862.20 1268.50 863.45
  C 1233.02 864.97 1206.36 849.31 1200.47 812.75
  C 1198.84 802.69 1198.17 791.95 1198.46 780.52
  C 1198.48 779.96 1198.02 779.50 1197.46 779.50
  L 1135.27 779.50
  C 1134.73 779.50 1134.29 779.93 1134.27 780.47
  C 1133.97 791.80 1134.54 803.07 1135.98 814.30
  C 1143.08 869.52 1177.16 903.88 1231.98 910.54
  C 1288.11 917.36 1356.95 905.49 1380.74 846.02
  C 1390.16 822.48 1391.88 794.37 1388.62 769.26
  C 1383.14 727.01 1355.01 701.68 1316.78 687.27
  C 1314.74 686.50 1312.81 685.55 1310.99 684.41
  C 1310.83 684.31 1310.64 684.25 1310.44 684.26
  C 1309.65 684.28 1309.18 684.26 1309.02 684.21
  C 1294.31 678.85 1279.63 673.45 1264.96 668.00
  C 1242.90 659.81 1217.57 647.80 1208.32 624.34
  C 1203.67 612.54 1203.28 597.37 1205.50 584.53
  C 1211.90 547.66 1244.54 535.78 1277.84 543.42
  C 1296.00 547.58 1307.48 558.81 1312.28 577.10"
/>
<path stroke="#fbcc8c" vector-effect="non-scaling-stroke" d="
  M 893.99 600.62
  C 898.56 626.04 901.47 642.92 902.72 651.25
  C 903.41 655.77 904.07 658.83 904.67 662.37
  C 918.38 742.72 932.11 823.07 945.88 903.42
  C 945.97 903.90 946.38 904.25 946.87 904.25
  L 1019.70 904.25
  C 1020.18 904.25 1020.59 903.91 1020.68 903.44
  L 1100.45 501.94
  C 1100.57 501.32 1100.10 500.75 1099.47 500.75
  L 1037.90 500.75
  C 1037.41 500.75 1037.00 501.10 1036.91 501.58
  C 1033.73 519.78 1030.61 537.99 1027.56 556.22
  C 1023.81 578.60 1020.14 601.00 1016.55 623.41
  C 1015.47 630.15 1013.90 636.95 1012.96 643.72
  C 1012.34 648.19 1011.98 650.70 1011.88 651.27
  C 1004.27 696.54 999.48 725.28 997.51 737.50
  C 996.58 743.27 995.66 747.85 994.77 751.26
  C 994.57 752.03 994.84 753.53 994.65 754.58
  C 992.58 766.32 990.65 778.08 988.86 789.86
  C 988.47 792.43 987.44 795.48 987.10 798.34
  C 986.35 804.55 985.39 809.69 984.63 815.41
  C 984.59 815.68 984.45 815.92 984.23 816.08
  C 983.59 816.55 983.19 816.34 983.04 815.44
  C 976.25 775.73 969.84 735.87 962.49 696.23
  C 962.14 694.33 961.83 692.42 961.57 690.51
  C 960.16 680.37 957.77 668.86 956.28 659.82
  C 954.40 648.33 952.42 636.87 950.33 625.42
  C 949.97 623.39 950.03 620.94 949.49 618.67
  C 948.72 615.43 948.34 613.79 948.33 613.75
  C 941.94 576.36 935.51 538.98 929.04 501.59
  C 928.96 501.11 928.54 500.76 928.06 500.76
  L 861.98 500.73
  C 861.50 500.73 861.08 501.08 861.00 501.56
  L 808.12 813.74
  C 808.07 814.02 807.85 814.23 807.57 814.27
  C 806.93 814.35 806.71 813.93 806.61 813.34
  C 801.60 783.22 796.73 753.07 791.48 723.00
  C 785.55 689.08 780.18 655.06 774.22 621.16
  C 767.89 585.16 764.85 563.62 760.49 539.75
  C 758.20 527.22 756.02 514.50 753.94 501.59
  C 753.87 501.11 753.45 500.75 752.96 500.75
  L 690.04 500.75
  C 689.41 500.75 688.94 501.32 689.06 501.94
  L 766.68 903.44
  C 766.77 903.91 767.18 904.25 767.66 904.25
  L 840.62 904.25
  C 841.12 904.25 841.55 903.88 841.61 903.38
  C 842.60 895.80 844.03 888.37 845.27 881.00
  C 861.04 787.69 876.83 694.38 892.62 601.07
  C 892.75 600.28 893.06 599.97 893.55 600.12
  C 893.78 600.19 893.95 600.39 893.99 600.62"
/>
<path stroke="#fbcc8c" vector-effect="non-scaling-stroke" d="
  M 604.37 806.03
  C 604.40 806.17 604.44 806.31 604.47 806.45
  C 612.47 838.76 620.51 871.11 628.59 903.49
  C 628.70 903.94 629.10 904.25 629.56 904.25
  L 694.69 904.25
  C 695.35 904.25 695.83 903.63 695.66 903.00
  C 660.47 769.15 625.57 635.22 589.94 501.49
  C 589.83 501.05 589.43 500.75 588.98 500.75
  L 507.97 500.75
  C 507.52 500.75 507.13 501.05 507.01 501.48
  C 489.38 563.29 471.80 625.11 454.28 686.96
  C 452.61 692.87 450.33 699.93 448.69 706.54
  C 444.58 723.04 438.47 740.01 435.27 753.79
  C 434.45 757.31 433.46 760.11 432.33 764.07
  C 419.14 810.42 405.98 856.72 392.87 902.98
  C 392.69 903.62 393.17 904.25 393.83 904.25
  L 458.94 904.25
  C 459.39 904.25 459.79 903.94 459.90 903.50
  L 485.57 806.00
  C 485.69 805.56 486.09 805.25 486.54 805.25
  L 603.39 805.25
  C 603.86 805.25 604.27 805.57 604.37 806.03"
/>
<path stroke="#fbcc8c" vector-effect="non-scaling-stroke" d="
  M 545.44 555.94
  C 529.49 621.41 513.65 686.93 497.94 752.52
  C 497.79 753.15 498.26 753.75 498.91 753.75
  L 591.84 753.75
  C 592.49 753.75 592.96 753.15 592.82 752.52
  L 546.90 555.55
  C 546.85 555.33 546.71 555.15 546.51 555.04
  C 546.01 554.75 545.65 555.05 545.44 555.94"
/>
</g>
<path fill="#f79919" d="
  M 1487.68 454.77
  C 1529.60 458.94 1569.10 470.96 1606.19 490.82
  C 1688.43 534.86 1756.45 613.07 1783.80 702.94
  C 1790.03 723.39 1793.53 742.40 1794.31 759.99
  C 1794.88 772.82 1795.33 797.90 1793.93 815.49
  C 1786.27 912.02 1715.93 993.69 1635.03 1039.77
  C 1584.55 1068.53 1530.38 1084.93 1472.52 1088.97
  C 1459.30 1089.90 1444.39 1089.99 1430.43 1089.99
  C 1102.45 1090.01 774.47 1090.01 446.50 1089.99
  C 431.70 1089.99 416.23 1090.10 401.30 1089.13
  C 332.53 1084.64 269.55 1063.23 212.36 1024.88
  C 142.98 978.36 85.22 903.68 77.47 817.66
  C 76.32 804.89 76.77 789.86 76.72 775.98
  C 76.59 743.22 82.74 711.66 94.16 680.43
  C 128.33 586.97 200.93 501.37 298.40 470.72
  C 298.80 470.59 299.08 470.24 299.10 469.83
  C 299.35 466.20 298.72 462.02 298.71 458.99
  C 298.50 364.73 328.27 273.56 383.75 198.00
  C 500.76 38.63 709.84 -22.57 893.95 47.29
  C 993.01 84.88 1075.40 158.42 1125.62 252.35
  C 1128.70 258.10 1132.82 266.44 1137.97 277.35
  C 1138.22 277.89 1138.88 278.09 1139.39 277.78
  C 1141.92 276.24 1144.41 274.70 1146.86 273.15
  C 1247.91 209.46 1382.91 238.63 1449.13 338.04
  C 1472.30 372.81 1484.85 411.41 1486.78 453.82
  C 1486.80 454.32 1487.18 454.72 1487.68 454.77
  Z
  M 1312.28 577.10
  C 1313.17 580.49 1313.82 582.95 1313.96 586.78
  C 1314.03 588.64 1314.27 590.48 1314.68 592.31
  C 1315.00 593.74 1314.96 597.98 1314.57 605.01
  C 1314.56 605.19 1314.60 605.37 1314.68 605.53
  C 1314.92 606.00 1315.04 606.48 1315.03 606.99
  C 1315.02 607.55 1315.47 608.00 1316.03 608.00
  L 1378.32 608.00
  C 1378.86 608.00 1379.31 607.56 1379.32 607.02
  C 1379.53 595.71 1379.10 585.45 1378.03 576.25
  C 1371.72 521.53 1333.11 497.16 1281.49 493.54
  C 1267.96 492.59 1255.49 492.79 1244.08 494.13
  C 1240.07 494.60 1234.89 494.08 1230.01 496.45
  C 1229.83 496.53 1229.63 496.57 1229.44 496.54
  C 1225.02 495.96 1221.87 498.02 1218.68 498.90
  C 1182.55 508.95 1155.10 533.44 1144.72 570.20
  C 1144.35 571.52 1143.52 572.48 1143.40 574.16
  C 1143.14 578.01 1141.84 581.71 1141.36 585.57
  C 1135.98 628.87 1144.00 669.33 1181.56 695.71
  C 1193.99 704.44 1207.42 711.43 1221.84 716.66
  C 1239.89 723.21 1258.02 729.57 1276.21 735.73
  C 1303.29 744.90 1321.96 762.74 1325.13 792.19
  C 1326.01 800.38 1325.97 807.72 1325.01 814.23
  C 1320.59 844.12 1297.80 862.20 1268.50 863.45
  C 1233.02 864.97 1206.36 849.31 1200.47 812.75
  C 1198.84 802.69 1198.17 791.95 1198.46 780.52
  C 1198.48 779.96 1198.02 779.50 1197.46 779.50
  L 1135.27 779.50
  C 1134.73 779.50 1134.29 779.93 1134.27 780.47
  C 1133.97 791.80 1134.54 803.07 1135.98 814.30
  C 1143.08 869.52 1177.16 903.88 1231.98 910.54
  C 1288.11 917.36 1356.95 905.49 1380.74 846.02
  C 1390.16 822.48 1391.88 794.37 1388.62 769.26
  C 1383.14 727.01 1355.01 701.68 1316.78 687.27
  C 1314.74 686.50 1312.81 685.55 1310.99 684.41
  C 1310.83 684.31 1310.64 684.25 1310.44 684.26
  C 1309.65 684.28 1309.18 684.26 1309.02 684.21
  C 1294.31 678.85 1279.63 673.45 1264.96 668.00
  C 1242.90 659.81 1217.57 647.80 1208.32 624.34
  C 1203.67 612.54 1203.28 597.37 1205.50 584.53
  C 1211.90 547.66 1244.54 535.78 1277.84 543.42
  C 1296.00 547.58 1307.48 558.81 1312.28 577.10
  Z
  M 893.99 600.62
  C 898.56 626.04 901.47 642.92 902.72 651.25
  C 903.41 655.77 904.07 658.83 904.67 662.37
  C 918.38 742.72 932.11 823.07 945.88 903.42
  C 945.97 903.90 946.38 904.25 946.87 904.25
  L 1019.70 904.25
  C 1020.18 904.25 1020.59 903.91 1020.68 903.44
  L 1100.45 501.94
  C 1100.57 501.32 1100.10 500.75 1099.47 500.75
  L 1037.90 500.75
  C 1037.41 500.75 1037.00 501.10 1036.91 501.58
  C 1033.73 519.78 1030.61 537.99 1027.56 556.22
  C 1023.81 578.60 1020.14 601.00 1016.55 623.41
  C 1015.47 630.15 1013.90 636.95 1012.96 643.72
  C 1012.34 648.19 1011.98 650.70 1011.88 651.27
  C 1004.27 696.54 999.48 725.28 997.51 737.50
  C 996.58 743.27 995.66 747.85 994.77 751.26
  C 994.57 752.03 994.84 753.53 994.65 754.58
  C 992.58 766.32 990.65 778.08 988.86 789.86
  C 988.47 792.43 987.44 795.48 987.10 798.34
  C 986.35 804.55 985.39 809.69 984.63 815.41
  C 984.59 815.68 984.45 815.92 984.23 816.08
  C 983.59 816.55 983.19 816.34 983.04 815.44
  C 976.25 775.73 969.84 735.87 962.49 696.23
  C 962.14 694.33 961.83 692.42 961.57 690.51
  C 960.16 680.37 957.77 668.86 956.28 659.82
  C 954.40 648.33 952.42 636.87 950.33 625.42
  C 949.97 623.39 950.03 620.94 949.49 618.67
  C 948.72 615.43 948.34 613.79 948.33 613.75
  C 941.94 576.36 935.51 538.98 929.04 501.59
  C 928.96 501.11 928.54 500.76 928.06 500.76
  L 861.98 500.73
  C 861.50 500.73 861.08 501.08 861.00 501.56
  L 808.12 813.74
  C 808.07 814.02 807.85 814.23 807.57 814.27
  C 806.93 814.35 806.71 813.93 806.61 813.34
  C 801.60 783.22 796.73 753.07 791.48 723.00
  C 785.55 689.08 780.18 655.06 774.22 621.16
  C 767.89 585.16 764.85 563.62 760.49 539.75
  C 758.20 527.22 756.02 514.50 753.94 501.59
  C 753.87 501.11 753.45 500.75 752.96 500.75
  L 690.04 500.75
  C 689.41 500.75 688.94 501.32 689.06 501.94
  L 766.68 903.44
  C 766.77 903.91 767.18 904.25 767.66 904.25
  L 840.62 904.25
  C 841.12 904.25 841.55 903.88 841.61 903.38
  C 842.60 895.80 844.03 888.37 845.27 881.00
  C 861.04 787.69 876.83 694.38 892.62 601.07
  C 892.75 600.28 893.06 599.97 893.55 600.12
  C 893.78 600.19 893.95 600.39 893.99 600.62
  Z
  M 604.37 806.03
  C 604.40 806.17 604.44 806.31 604.47 806.45
  C 612.47 838.76 620.51 871.11 628.59 903.49
  C 628.70 903.94 629.10 904.25 629.56 904.25
  L 694.69 904.25
  C 695.35 904.25 695.83 903.63 695.66 903.00
  C 660.47 769.15 625.57 635.22 589.94 501.49
  C 589.83 501.05 589.43 500.75 588.98 500.75
  L 507.97 500.75
  C 507.52 500.75 507.13 501.05 507.01 501.48
  C 489.38 563.29 471.80 625.11 454.28 686.96
  C 452.61 692.87 450.33 699.93 448.69 706.54
  C 444.58 723.04 438.47 740.01 435.27 753.79
  C 434.45 757.31 433.46 760.11 432.33 764.07
  C 419.14 810.42 405.98 856.72 392.87 902.98
  C 392.69 903.62 393.17 904.25 393.83 904.25
  L 458.94 904.25
  C 459.39 904.25 459.79 903.94 459.90 903.50
  L 485.57 806.00
  C 485.69 805.56 486.09 805.25 486.54 805.25
  L 603.39 805.25
  C 603.86 805.25 604.27 805.57 604.37 806.03
  Z"
/>
<path fill="#ffffff" d="
  M 1312.28 577.10
  C 1307.48 558.81 1296.00 547.58 1277.84 543.42
  C 1244.54 535.78 1211.90 547.66 1205.50 584.53
  C 1203.28 597.37 1203.67 612.54 1208.32 624.34
  C 1217.57 647.80 1242.90 659.81 1264.96 668.00
  C 1279.63 673.45 1294.31 678.85 1309.02 684.21
  C 1309.18 684.26 1309.65 684.28 1310.44 684.26
  C 1310.64 684.25 1310.83 684.31 1310.99 684.41
  C 1312.81 685.55 1314.74 686.50 1316.78 687.27
  C 1355.01 701.68 1383.14 727.01 1388.62 769.26
  C 1391.88 794.37 1390.16 822.48 1380.74 846.02
  C 1356.95 905.49 1288.11 917.36 1231.98 910.54
  C 1177.16 903.88 1143.08 869.52 1135.98 814.30
  C 1134.54 803.07 1133.97 791.80 1134.27 780.47
  C 1134.29 779.93 1134.73 779.50 1135.27 779.50
  L 1197.46 779.50
  C 1198.02 779.50 1198.48 779.96 1198.46 780.52
  C 1198.17 791.95 1198.84 802.69 1200.47 812.75
  C 1206.36 849.31 1233.02 864.97 1268.50 863.45
  C 1297.80 862.20 1320.59 844.12 1325.01 814.23
  C 1325.97 807.72 1326.01 800.38 1325.13 792.19
  C 1321.96 762.74 1303.29 744.90 1276.21 735.73
  C 1258.02 729.57 1239.89 723.21 1221.84 716.66
  C 1207.42 711.43 1193.99 704.44 1181.56 695.71
  C 1144.00 669.33 1135.98 628.87 1141.36 585.57
  C 1141.84 581.71 1143.14 578.01 1143.40 574.16
  C 1143.52 572.48 1144.35 571.52 1144.72 570.20
  C 1155.10 533.44 1182.55 508.95 1218.68 498.90
  C 1221.87 498.02 1225.02 495.96 1229.44 496.54
  C 1229.63 496.57 1229.83 496.53 1230.01 496.45
  C 1234.89 494.08 1240.07 494.60 1244.08 494.13
  C 1255.49 492.79 1267.96 492.59 1281.49 493.54
  C 1333.11 497.16 1371.72 521.53 1378.03 576.25
  C 1379.10 585.45 1379.53 595.71 1379.32 607.02
  C 1379.31 607.56 1378.86 608.00 1378.32 608.00
  L 1316.03 608.00
  C 1315.47 608.00 1315.02 607.55 1315.03 606.99
  C 1315.04 606.48 1314.92 606.00 1314.68 605.53
  C 1314.60 605.37 1314.56 605.19 1314.57 605.01
  C 1314.96 597.98 1315.00 593.74 1314.68 592.31
  C 1314.27 590.48 1314.03 588.64 1313.96 586.78
  C 1313.82 582.95 1313.17 580.49 1312.28 577.10
  Z"
/>
<path fill="#ffffff" d="
  M 893.55 600.12
  C 893.06 599.97 892.75 600.28 892.62 601.07
  C 876.83 694.38 861.04 787.69 845.27 881.00
  C 844.03 888.37 842.60 895.80 841.61 903.38
  C 841.55 903.88 841.12 904.25 840.62 904.25
  L 767.66 904.25
  C 767.18 904.25 766.77 903.91 766.68 903.44
  L 689.06 501.94
  C 688.94 501.32 689.41 500.75 690.04 500.75
  L 752.96 500.75
  C 753.45 500.75 753.87 501.11 753.94 501.59
  C 756.02 514.50 758.20 527.22 760.49 539.75
  C 764.85 563.62 767.89 585.16 774.22 621.16
  C 780.18 655.06 785.55 689.08 791.48 723.00
  C 796.73 753.07 801.60 783.22 806.61 813.34
  C 806.71 813.93 806.93 814.35 807.57 814.27
  C 807.85 814.23 808.07 814.02 808.12 813.74
  L 861.00 501.56
  C 861.08 501.08 861.50 500.73 861.98 500.73
  L 928.06 500.76
  C 928.54 500.76 928.96 501.11 929.04 501.59
  C 935.51 538.98 941.94 576.36 948.33 613.75
  C 948.34 613.79 948.72 615.43 949.49 618.67
  C 950.03 620.94 949.97 623.39 950.33 625.42
  C 952.42 636.87 954.40 648.33 956.28 659.82
  C 957.77 668.86 960.16 680.37 961.57 690.51
  C 961.83 692.42 962.14 694.33 962.49 696.23
  C 969.84 735.87 976.25 775.73 983.04 815.44
  C 983.19 816.34 983.59 816.55 984.23 816.08
  C 984.45 815.92 984.59 815.68 984.63 815.41
  C 985.39 809.69 986.35 804.55 987.10 798.34
  C 987.44 795.48 988.47 792.43 988.86 789.86
  C 990.65 778.08 992.58 766.32 994.65 754.58
  C 994.84 753.53 994.57 752.03 994.77 751.26
  C 995.66 747.85 996.58 743.27 997.51 737.50
  C 999.48 725.28 1004.27 696.54 1011.88 651.27
  C 1011.98 650.70 1012.34 648.19 1012.96 643.72
  C 1013.90 636.95 1015.47 630.15 1016.55 623.41
  C 1020.14 601.00 1023.81 578.60 1027.56 556.22
  C 1030.61 537.99 1033.73 519.78 1036.91 501.58
  C 1037.00 501.10 1037.41 500.75 1037.90 500.75
  L 1099.47 500.75
  C 1100.10 500.75 1100.57 501.32 1100.45 501.94
  L 1020.68 903.44
  C 1020.59 903.91 1020.18 904.25 1019.70 904.25
  L 946.87 904.25
  C 946.38 904.25 945.97 903.90 945.88 903.42
  C 932.11 823.07 918.38 742.72 904.67 662.37
  C 904.07 658.83 903.41 655.77 902.72 651.25
  C 901.47 642.92 898.56 626.04 893.99 600.62
  C 893.95 600.39 893.78 600.19 893.55 600.12
  Z"
/>
<path fill="#ffffff" d="
  M 603.39 805.25
  L 486.54 805.25
  C 486.09 805.25 485.69 805.56 485.57 806.00
  L 459.90 903.50
  C 459.79 903.94 459.39 904.25 458.94 904.25
  L 393.83 904.25
  C 393.17 904.25 392.69 903.62 392.87 902.98
  C 405.98 856.72 419.14 810.42 432.33 764.07
  C 433.46 760.11 434.45 757.31 435.27 753.79
  C 438.47 740.01 444.58 723.04 448.69 706.54
  C 450.33 699.93 452.61 692.87 454.28 686.96
  C 471.80 625.11 489.38 563.29 507.01 501.48
  C 507.13 501.05 507.52 500.75 507.97 500.75
  L 588.98 500.75
  C 589.43 500.75 589.83 501.05 589.94 501.49
  C 625.57 635.22 660.47 769.15 695.66 903.00
  C 695.83 903.63 695.35 904.25 694.69 904.25
  L 629.56 904.25
  C 629.10 904.25 628.70 903.94 628.59 903.49
  C 620.51 871.11 612.47 838.76 604.47 806.45
  C 604.44 806.31 604.40 806.17 604.37 806.03
  C 604.27 805.57 603.86 805.25 603.39 805.25
  Z
  M 545.44 555.94
  C 529.49 621.41 513.65 686.93 497.94 752.52
  C 497.79 753.15 498.26 753.75 498.91 753.75
  L 591.84 753.75
  C 592.49 753.75 592.96 753.15 592.82 752.52
  L 546.90 555.55
  C 546.85 555.33 546.71 555.15 546.51 555.04
  C 546.01 554.75 545.65 555.05 545.44 555.94
  Z"
/>
<path fill="#f79919" d="
  M 545.44 555.94
  C 545.65 555.05 546.01 554.75 546.51 555.04
  C 546.71 555.15 546.85 555.33 546.90 555.55
  L 592.82 752.52
  C 592.96 753.15 592.49 753.75 591.84 753.75
  L 498.91 753.75
  C 498.26 753.75 497.79 753.15 497.94 752.52
  C 513.65 686.93 529.49 621.41 545.44 555.94
  Z"
/>
</svg>
