<?xml version="1.0" encoding="UTF-8" standalone="no"?>
<!DOCTYPE svg PUBLIC "-//W3C//DTD SVG 1.1//EN" "http://www.w3.org/Graphics/SVG/1.1/DTD/svg11.dtd">
<svg xmlns="http://www.w3.org/2000/svg" version="1.1" viewBox="0 0 1200 1238">
<g stroke-width="2.00" fill="none" stroke-linecap="butt">
<path stroke="#808080" vector-effect="non-scaling-stroke" d="
  M 581.16 863.30
  C 580.61 913.97 581.67 964.60 584.33 1015.19
  C 585.54 1038.18 587.80 1061.05 591.11 1083.81
  C 594.31 1105.81 602.21 1124.77 612.82 1143.43
  C 641.19 1193.32 690.25 1211.79 745.82 1202.85
  C 772.11 1198.62 798.43 1191.34 821.95 1179.19
  C 870.10 1154.30 890.20 1109.88 898.35 1058.82
  C 903.73 1025.13 908.26 993.95 911.93 965.27
  C 916.90 926.37 921.56 887.43 925.90 848.45
  C 925.96 847.85 926.54 847.44 927.13 847.59
  C 943.68 851.70 961.30 853.48 979.99 852.93
  C 1007.17 852.13 1032.90 848.52 1057.17 842.09
  C 1085.71 834.54 1111.83 820.23 1135.21 801.96
  C 1145.74 793.73 1156.59 783.36 1162.36 771.12
  C 1167.67 759.86 1165.93 747.27 1156.38 739.24
  C 1146.25 730.73 1128.69 731.50 1115.93 734.41
  C 1091.40 740.01 1059.73 744.20 1031.82 743.56
  C 1017.36 743.23 1001.95 741.19 989.28 733.70
  C 988.79 733.41 988.64 732.78 988.95 732.30
  C 1050.72 637.06 1097.68 534.86 1129.81 425.69
  C 1147.09 366.98 1159.90 304.96 1159.46 243.51
  C 1159.33 225.40 1157.30 206.24 1152.38 189.29
  C 1148.46 175.77 1141.70 163.23 1132.10 151.66
  C 1093.19 104.79 1045.50 71.69 989.01 52.36
  C 903.44 23.10 804.64 28.70 719.31 55.55
  C 716.88 56.31 716.48 57.51 713.26 56.73
  C 680.45 48.78 646.51 45.32 611.44 46.33
  C 568.43 47.57 525.75 58.67 488.91 81.24
  C 485.88 83.09 482.79 84.98 479.63 86.89
  C 479.37 87.05 479.05 87.08 478.77 86.97
  C 438.69 72.44 397.60 61.80 355.49 55.07
  C 293.90 45.23 223.94 44.68 165.74 69.47
  C 56.14 116.15 30.27 230.09 35.70 338.20
  C 36.72 358.38 39.90 379.18 43.32 398.69
  C 55.03 465.40 70.39 531.76 89.38 597.79
  C 104.60 650.66 122.53 703.02 144.97 753.29
  C 169.55 808.34 229.52 922.95 309.43 873.80
  C 319.36 867.69 327.75 860.61 334.59 852.57
  C 373.17 807.22 406.51 769.43 434.60 739.20
  C 434.91 738.87 435.40 738.79 435.80 739.00
  C 456.78 750.21 479.21 756.23 503.10 757.08
  C 504.43 757.13 504.68 757.67 503.85 758.71
  C 496.55 767.85 487.08 780.55 481.18 786.54
  C 475.25 792.56 469.28 796.00 460.87 799.17
  C 444.99 805.14 427.99 808.07 411.63 811.92
  C 393.16 816.26 364.35 825.03 362.63 848.40
  C 360.67 875.04 396.26 890.35 416.70 895.43
  C 437.81 900.68 459.21 902.78 480.92 901.74
  C 518.53 899.94 551.40 886.87 579.51 862.53
  C 580.63 861.56 581.18 861.82 581.16 863.30"
/>
<path stroke="#99b3c8" vector-effect="non-scaling-stroke" d="
  M 1121.28 301.51
  C 1125.25 271.30 1127.39 235.38 1120.49 204.01
  C 1118.34 194.21 1114.48 185.27 1107.96 177.01
  C 1050.79 104.53 966.92 69.72 875.75 67.76
  C 842.56 67.05 809.37 69.99 776.18 76.60
  C 774.57 76.92 774.51 77.42 776.00 78.11
  C 820.47 98.62 859.47 126.59 893.00 162.00
  C 929.59 200.63 958.24 244.47 978.96 293.52
  C 984.49 306.62 988.58 319.13 991.22 331.05
  C 992.85 338.38 991.68 347.72 991.68 353.56
  C 991.66 380.37 988.08 398.49 983.14 432.48
  C 980.03 453.91 979.56 475.39 981.71 496.92
  C 984.54 525.13 988.60 553.41 989.48 581.75
  C 990.71 620.99 982.89 658.62 962.68 692.52
  C 962.46 692.88 962.49 693.34 962.75 693.66
  L 967.30 699.37
  C 967.73 699.91 968.56 699.87 968.93 699.28
  C 1014.02 627.48 1050.68 551.59 1078.93 471.61
  C 1098.35 416.63 1113.67 359.38 1121.28 301.51"
/>
<path stroke="#99b3c8" vector-effect="non-scaling-stroke" d="
  M 559.04 729.98
  C 589.61 734.57 610.67 760.10 616.06 789.28
  C 616.74 792.94 617.00 797.44 616.85 802.79
  C 614.60 882.88 614.58 967.25 621.59 1048.05
  C 622.18 1054.84 622.89 1061.46 623.74 1067.93
  C 625.21 1079.23 626.35 1086.34 627.18 1089.27
  C 632.26 1107.26 639.77 1123.10 649.72 1136.79
  C 682.83 1182.37 740.13 1173.33 786.27 1157.05
  C 816.34 1146.43 839.57 1128.64 851.88 1098.54
  C 859.16 1080.74 862.99 1061.92 865.82 1042.97
  C 876.73 970.00 886.00 896.83 893.63 823.44
  C 895.21 808.30 893.71 794.12 897.19 778.51
  C 902.30 755.58 916.82 738.90 938.91 731.39
  C 940.88 730.72 942.87 729.99 944.87 729.20
  C 945.49 728.96 945.70 728.18 945.29 727.66
  C 932.47 711.27 924.97 701.54 922.79 698.46
  C 914.44 686.63 907.28 674.14 901.29 661.00
  C 892.42 641.54 881.40 622.91 871.08 604.18
  C 856.99 578.59 844.27 552.35 832.91 525.44
  C 806.74 463.42 777.23 359.32 867.16 328.79
  C 876.42 325.64 885.70 323.56 895.01 322.53
  C 914.08 320.42 932.90 320.45 951.46 322.60
  C 952.20 322.69 952.77 321.96 952.51 321.26
  C 945.48 301.98 937.16 283.80 927.57 266.73
  C 905.94 228.24 877.29 191.65 843.86 162.74
  C 779.08 106.71 702.94 79.45 615.44 80.96
  C 555.90 81.99 503.06 103.28 463.36 147.00
  C 437.47 175.52 418.76 212.32 407.01 248.51
  C 395.74 283.26 388.57 319.39 385.52 356.88
  C 385.42 358.11 385.91 358.43 387.00 357.84
  C 403.64 348.76 421.02 341.41 439.14 335.79
  C 487.63 320.76 545.80 320.23 575.13 369.08
  C 579.71 376.71 583.67 386.50 585.75 395.00
  C 593.56 426.93 598.46 460.12 600.46 494.56
  C 603.15 541.07 597.27 585.72 580.07 628.31
  C 575.91 638.61 571.59 648.84 567.11 659.01
  C 557.04 681.86 548.42 705.26 541.26 729.20
  C 541.04 729.92 541.68 730.61 542.42 730.46
  C 548.01 729.31 553.55 729.15 559.04 729.98"
/>
<path stroke="#99b3c8" vector-effect="non-scaling-stroke" d="
  M 166.37 715.45
  C 179.92 748.74 235.07 878.43 289.41 845.31
  C 297.82 840.19 304.54 834.61 309.59 828.57
  C 340.58 791.52 372.51 755.25 405.36 719.74
  C 405.74 719.33 405.71 718.68 405.29 718.31
  C 377.04 692.98 358.48 662.05 349.62 625.52
  C 345.05 606.64 343.24 584.53 345.35 566.07
  C 347.56 546.85 348.85 535.24 349.22 531.25
  C 353.05 490.74 351.98 449.47 349.63 407.24
  C 349.21 399.67 349.07 393.01 349.20 387.25
  C 350.64 324.48 362.47 261.11 387.48 203.21
  C 402.01 169.57 421.73 139.87 446.64 114.12
  C 447.15 113.59 446.93 112.70 446.23 112.47
  C 415.56 102.43 383.32 94.68 349.51 89.22
  C 284.48 78.73 209.64 79.20 152.18 115.68
  C 79.73 161.68 66.54 256.89 70.17 334.52
  C 71.11 354.54 74.27 374.77 77.76 394.50
  C 91.33 471.12 109.60 546.60 132.59 620.93
  C 142.49 652.93 153.75 684.44 166.37 715.45"
/>
<path stroke="#99b3c8" vector-effect="non-scaling-stroke" d="
  M 956.13 358.01
  C 944.62 356.51 933.31 355.75 922.20 355.74
  C 892.79 355.71 855.96 360.38 844.71 392.51
  C 835.32 419.35 844.37 456.54 853.82 483.23
  C 871.43 532.92 897.05 579.74 921.30 623.56
  C 926.31 632.62 929.87 640.04 933.94 649.06
  C 935.29 652.06 937.05 655.53 939.21 659.46
  C 939.86 660.63 940.45 660.61 941.00 659.38
  C 947.08 645.79 951.07 632.16 952.96 618.48
  C 958.09 581.57 952.07 544.98 947.61 505.43
  C 944.87 481.20 945.14 456.75 948.43 432.08
  C 950.32 417.90 952.27 403.73 954.29 389.56
  C 955.74 379.39 956.64 369.22 957.00 359.04
  C 957.02 358.52 956.64 358.08 956.13 358.01"
/>
<path stroke="#99b3c8" vector-effect="non-scaling-stroke" d="
  M 379.22 578.96
  C 377.62 650.89 430.31 721.81 506.39 722.44
  C 506.84 722.44 507.24 722.15 507.36 721.72
  C 514.69 696.79 523.52 672.40 533.87 648.55
  C 538.03 638.96 542.15 629.34 546.23 619.70
  C 574.92 551.91 568.97 477.97 553.23 407.93
  C 542.60 360.62 503.70 355.90 463.27 365.35
  C 435.54 371.84 407.09 383.59 384.25 400.84
  C 383.98 401.04 383.83 401.37 383.85 401.71
  C 387.59 454.39 387.79 505.20 381.05 559.08
  C 379.92 568.09 379.31 574.72 379.22 578.96"
/>
<path stroke="#99b3c8" vector-effect="non-scaling-stroke" d="
  M 929.97 811.08
  C 937.46 815.65 948.88 817.14 957.50 817.82
  C 984.47 819.96 1013.23 816.87 1039.60 811.00
  C 1054.78 807.63 1070.01 801.80 1085.28 793.53
  C 1097.31 787.02 1108.52 779.35 1118.93 770.50
  C 1120.54 769.13 1120.32 768.67 1118.25 769.11
  C 1095.18 774.02 1071.84 777.01 1048.24 778.06
  C 1020.78 779.29 988.96 776.88 966.14 759.59
  C 965.89 759.40 965.57 759.34 965.27 759.42
  C 948.55 764.06 936.06 766.66 931.34 785.13
  C 929.25 793.33 928.64 801.73 929.50 810.33
  C 929.53 810.64 929.71 810.92 929.97 811.08"
/>
<path stroke="#99b3c8" vector-effect="non-scaling-stroke" d="
  M 402.63 852.49
  C 409.27 856.55 416.21 859.51 423.46 861.38
  C 481.14 876.28 537.93 865.44 575.37 816.17
  C 578.67 811.83 580.68 808.05 581.40 804.83
  C 584.45 791.32 574.85 772.01 562.08 766.82
  C 556.59 764.59 551.25 762.60 546.04 765.76
  C 542.51 767.91 538.76 771.34 534.80 776.06
  C 528.33 783.75 521.93 791.49 515.60 799.29
  C 509.67 806.59 505.26 811.58 502.38 814.25
  C 491.11 824.73 476.15 831.31 462.26 835.28
  C 450.20 838.72 436.37 842.09 420.78 845.38
  C 414.57 846.69 408.57 848.47 402.79 850.71
  C 401.54 851.20 401.48 851.79 402.63 852.49"
/>
<path stroke="#99b3c8" vector-effect="non-scaling-stroke" d="
  M 874.19 400.56
  C 886.65 410.53 901.38 410.24 913.43 400.45
  C 918.39 396.43 927.57 386.41 923.98 379.41
  C 915.51 362.90 843.94 376.37 874.19 400.56"
/>
<path stroke="#99b3c8" vector-effect="non-scaling-stroke" d="
  M 484.44 412.81
  C 488.57 416.26 492.82 418.80 497.17 420.45
  C 511.14 425.70 526.49 419.66 534.98 407.80
  C 541.06 399.29 535.74 391.80 527.60 387.76
  C 514.84 381.42 501.40 379.49 487.28 381.97
  C 466.09 385.68 473.35 403.56 484.44 412.81"
/>
</g>
<path fill="#000000" d="
  M 857.81 0.00
  L 874.06 0.00
  C 986.83 2.00 1088.08 44.23 1160.54 131.98
  C 1188.13 165.39 1195.57 208.58 1195.14 250.76
  C 1194.86 277.68 1192.58 304.43 1188.30 331.01
  C 1178.37 392.71 1161.19 453.44 1139.58 512.03
  C 1114.19 580.86 1083.00 646.61 1046.02 709.30
  C 1045.39 710.37 1045.69 710.88 1046.94 710.81
  C 1060.64 710.06 1073.97 708.59 1086.93 706.41
  C 1090.08 705.88 1099.60 704.15 1115.49 701.22
  C 1152.76 694.35 1190.77 708.18 1200.00 748.31
  L 1200.00 770.56
  C 1195.32 793.49 1180.84 811.64 1163.26 826.26
  C 1132.98 851.45 1098.41 869.82 1060.51 879.04
  C 1028.97 886.70 996.99 890.12 964.56 889.31
  C 960.92 889.22 956.57 888.63 952.56 888.43
  C 952.04 888.40 951.59 888.78 951.52 889.29
  C 950.25 898.67 949.60 904.26 949.55 906.06
  C 948.34 957.05 943.84 1012.09 931.53 1063.75
  C 913.65 1138.80 874.07 1197.92 797.41 1221.87
  C 762.48 1232.78 726.94 1240.54 690.61 1235.66
  C 640.10 1228.87 603.82 1195.02 585.71 1148.16
  C 576.52 1124.36 568.98 1103.09 564.89 1078.73
  C 561.82 1060.42 559.64 1042.01 558.37 1023.49
  C 556.07 990.20 554.61 956.87 553.99 923.50
  C 553.98 922.79 553.25 922.32 552.60 922.59
  C 529.20 932.34 504.81 937.57 479.44 938.29
  C 437.29 939.48 390.58 931.59 356.05 905.46
  C 353.46 903.50 349.74 899.87 344.91 894.56
  C 344.56 894.18 343.97 894.13 343.56 894.45
  C 339.85 897.32 336.13 900.02 332.38 902.57
  C 317.04 913.01 299.24 919.90 280.76 921.47
  C 214.01 927.17 166.68 868.25 137.94 816.28
  C 113.53 772.14 93.82 723.53 78.07 675.97
  C 48.58 586.96 25.55 494.55 8.97 398.75
  C 1.89 357.81 -0.19 317.55 2.72 277.97
  C 9.20 190.06 40.14 107.61 117.39 58.38
  C 167.70 26.32 229.94 15.36 288.75 16.82
  C 351.83 18.39 415.37 31.61 474.09 51.43
  C 474.36 51.53 474.66 51.50 474.91 51.35
  C 517.65 26.55 565.03 14.50 614.32 13.57
  C 648.67 12.92 682.78 15.38 716.66 20.95
  C 718.22 21.20 719.77 21.11 721.30 20.68
  C 765.90 7.95 811.40 1.05 857.81 0.00
  Z
  M 581.16 863.30
  C 580.61 913.97 581.67 964.60 584.33 1015.19
  C 585.54 1038.18 587.80 1061.05 591.11 1083.81
  C 594.31 1105.81 602.21 1124.77 612.82 1143.43
  C 641.19 1193.32 690.25 1211.79 745.82 1202.85
  C 772.11 1198.62 798.43 1191.34 821.95 1179.19
  C 870.10 1154.30 890.20 1109.88 898.35 1058.82
  C 903.73 1025.13 908.26 993.95 911.93 965.27
  C 916.90 926.37 921.56 887.43 925.90 848.45
  C 925.96 847.85 926.54 847.44 927.13 847.59
  C 943.68 851.70 961.30 853.48 979.99 852.93
  C 1007.17 852.13 1032.90 848.52 1057.17 842.09
  C 1085.71 834.54 1111.83 820.23 1135.21 801.96
  C 1145.74 793.73 1156.59 783.36 1162.36 771.12
  C 1167.67 759.86 1165.93 747.27 1156.38 739.24
  C 1146.25 730.73 1128.69 731.50 1115.93 734.41
  C 1091.40 740.01 1059.73 744.20 1031.82 743.56
  C 1017.36 743.23 1001.95 741.19 989.28 733.70
  C 988.79 733.41 988.64 732.78 988.95 732.30
  C 1050.72 637.06 1097.68 534.86 1129.81 425.69
  C 1147.09 366.98 1159.90 304.96 1159.46 243.51
  C 1159.33 225.40 1157.30 206.24 1152.38 189.29
  C 1148.46 175.77 1141.70 163.23 1132.10 151.66
  C 1093.19 104.79 1045.50 71.69 989.01 52.36
  C 903.44 23.10 804.64 28.70 719.31 55.55
  C 716.88 56.31 716.48 57.51 713.26 56.73
  C 680.45 48.78 646.51 45.32 611.44 46.33
  C 568.43 47.57 525.75 58.67 488.91 81.24
  C 485.88 83.09 482.79 84.98 479.63 86.89
  C 479.37 87.05 479.05 87.08 478.77 86.97
  C 438.69 72.44 397.60 61.80 355.49 55.07
  C 293.90 45.23 223.94 44.68 165.74 69.47
  C 56.14 116.15 30.27 230.09 35.70 338.20
  C 36.72 358.38 39.90 379.18 43.32 398.69
  C 55.03 465.40 70.39 531.76 89.38 597.79
  C 104.60 650.66 122.53 703.02 144.97 753.29
  C 169.55 808.34 229.52 922.95 309.43 873.80
  C 319.36 867.69 327.75 860.61 334.59 852.57
  C 373.17 807.22 406.51 769.43 434.60 739.20
  C 434.91 738.87 435.40 738.79 435.80 739.00
  C 456.78 750.21 479.21 756.23 503.10 757.08
  C 504.43 757.13 504.68 757.67 503.85 758.71
  C 496.55 767.85 487.08 780.55 481.18 786.54
  C 475.25 792.56 469.28 796.00 460.87 799.17
  C 444.99 805.14 427.99 808.07 411.63 811.92
  C 393.16 816.26 364.35 825.03 362.63 848.40
  C 360.67 875.04 396.26 890.35 416.70 895.43
  C 437.81 900.68 459.21 902.78 480.92 901.74
  C 518.53 899.94 551.40 886.87 579.51 862.53
  C 580.63 861.56 581.18 861.82 581.16 863.30
  Z"
/>
<path fill="#ffffff" d="
  M 579.51 862.53
  C 551.40 886.87 518.53 899.94 480.92 901.74
  C 459.21 902.78 437.81 900.68 416.70 895.43
  C 396.26 890.35 360.67 875.04 362.63 848.40
  C 364.35 825.03 393.16 816.26 411.63 811.92
  C 427.99 808.07 444.99 805.14 460.87 799.17
  C 469.28 796.00 475.25 792.56 481.18 786.54
  C 487.08 780.55 496.55 767.85 503.85 758.71
  C 504.68 757.67 504.43 757.13 503.10 757.08
  C 479.21 756.23 456.78 750.21 435.80 739.00
  C 435.40 738.79 434.91 738.87 434.60 739.20
  C 406.51 769.43 373.17 807.22 334.59 852.57
  C 327.75 860.61 319.36 867.69 309.43 873.80
  C 229.52 922.95 169.55 808.34 144.97 753.29
  C 122.53 703.02 104.60 650.66 89.38 597.79
  C 70.39 531.76 55.03 465.40 43.32 398.69
  C 39.90 379.18 36.72 358.38 35.70 338.20
  C 30.27 230.09 56.14 116.15 165.74 69.47
  C 223.94 44.68 293.90 45.23 355.49 55.07
  C 397.60 61.80 438.69 72.44 478.77 86.97
  C 479.05 87.08 479.37 87.05 479.63 86.89
  C 482.79 84.98 485.88 83.09 488.91 81.24
  C 525.75 58.67 568.43 47.57 611.44 46.33
  C 646.51 45.32 680.45 48.78 713.26 56.73
  C 716.48 57.51 716.88 56.31 719.31 55.55
  C 804.64 28.70 903.44 23.10 989.01 52.36
  C 1045.50 71.69 1093.19 104.79 1132.10 151.66
  C 1141.70 163.23 1148.46 175.77 1152.38 189.29
  C 1157.30 206.24 1159.33 225.40 1159.46 243.51
  C 1159.90 304.96 1147.09 366.98 1129.81 425.69
  C 1097.68 534.86 1050.72 637.06 988.95 732.30
  C 988.64 732.78 988.79 733.41 989.28 733.70
  C 1001.95 741.19 1017.36 743.23 1031.82 743.56
  C 1059.73 744.20 1091.40 740.01 1115.93 734.41
  C 1128.69 731.50 1146.25 730.73 1156.38 739.24
  C 1165.93 747.27 1167.67 759.86 1162.36 771.12
  C 1156.59 783.36 1145.74 793.73 1135.21 801.96
  C 1111.83 820.23 1085.71 834.54 1057.17 842.09
  C 1032.90 848.52 1007.17 852.13 979.99 852.93
  C 961.30 853.48 943.68 851.70 927.13 847.59
  C 926.54 847.44 925.96 847.85 925.90 848.45
  C 921.56 887.43 916.90 926.37 911.93 965.27
  C 908.26 993.95 903.73 1025.13 898.35 1058.82
  C 890.20 1109.88 870.10 1154.30 821.95 1179.19
  C 798.43 1191.34 772.11 1198.62 745.82 1202.85
  C 690.25 1211.79 641.19 1193.32 612.82 1143.43
  C 602.21 1124.77 594.31 1105.81 591.11 1083.81
  C 587.80 1061.05 585.54 1038.18 584.33 1015.19
  C 581.67 964.60 580.61 913.97 581.16 863.30
  C 581.18 861.82 580.63 861.56 579.51 862.53
  Z
  M 1121.28 301.51
  C 1125.25 271.30 1127.39 235.38 1120.49 204.01
  C 1118.34 194.21 1114.48 185.27 1107.96 177.01
  C 1050.79 104.53 966.92 69.72 875.75 67.76
  C 842.56 67.05 809.37 69.99 776.18 76.60
  C 774.57 76.92 774.51 77.42 776.00 78.11
  C 820.47 98.62 859.47 126.59 893.00 162.00
  C 929.59 200.63 958.24 244.47 978.96 293.52
  C 984.49 306.62 988.58 319.13 991.22 331.05
  C 992.85 338.38 991.68 347.72 991.68 353.56
  C 991.66 380.37 988.08 398.49 983.14 432.48
  C 980.03 453.91 979.56 475.39 981.71 496.92
  C 984.54 525.13 988.60 553.41 989.48 581.75
  C 990.71 620.99 982.89 658.62 962.68 692.52
  C 962.46 692.88 962.49 693.34 962.75 693.66
  L 967.30 699.37
  C 967.73 699.91 968.56 699.87 968.93 699.28
  C 1014.02 627.48 1050.68 551.59 1078.93 471.61
  C 1098.35 416.63 1113.67 359.38 1121.28 301.51
  Z
  M 559.04 729.98
  C 589.61 734.57 610.67 760.10 616.06 789.28
  C 616.74 792.94 617.00 797.44 616.85 802.79
  C 614.60 882.88 614.58 967.25 621.59 1048.05
  C 622.18 1054.84 622.89 1061.46 623.74 1067.93
  C 625.21 1079.23 626.35 1086.34 627.18 1089.27
  C 632.26 1107.26 639.77 1123.10 649.72 1136.79
  C 682.83 1182.37 740.13 1173.33 786.27 1157.05
  C 816.34 1146.43 839.57 1128.64 851.88 1098.54
  C 859.16 1080.74 862.99 1061.92 865.82 1042.97
  C 876.73 970.00 886.00 896.83 893.63 823.44
  C 895.21 808.30 893.71 794.12 897.19 778.51
  C 902.30 755.58 916.82 738.90 938.91 731.39
  C 940.88 730.72 942.87 729.99 944.87 729.20
  C 945.49 728.96 945.70 728.18 945.29 727.66
  C 932.47 711.27 924.97 701.54 922.79 698.46
  C 914.44 686.63 907.28 674.14 901.29 661.00
  C 892.42 641.54 881.40 622.91 871.08 604.18
  C 856.99 578.59 844.27 552.35 832.91 525.44
  C 806.74 463.42 777.23 359.32 867.16 328.79
  C 876.42 325.64 885.70 323.56 895.01 322.53
  C 914.08 320.42 932.90 320.45 951.46 322.60
  C 952.20 322.69 952.77 321.96 952.51 321.26
  C 945.48 301.98 937.16 283.80 927.57 266.73
  C 905.94 228.24 877.29 191.65 843.86 162.74
  C 779.08 106.71 702.94 79.45 615.44 80.96
  C 555.90 81.99 503.06 103.28 463.36 147.00
  C 437.47 175.52 418.76 212.32 407.01 248.51
  C 395.74 283.26 388.57 319.39 385.52 356.88
  C 385.42 358.11 385.91 358.43 387.00 357.84
  C 403.64 348.76 421.02 341.41 439.14 335.79
  C 487.63 320.76 545.80 320.23 575.13 369.08
  C 579.71 376.71 583.67 386.50 585.75 395.00
  C 593.56 426.93 598.46 460.12 600.46 494.56
  C 603.15 541.07 597.27 585.72 580.07 628.31
  C 575.91 638.61 571.59 648.84 567.11 659.01
  C 557.04 681.86 548.42 705.26 541.26 729.20
  C 541.04 729.92 541.68 730.61 542.42 730.46
  C 548.01 729.31 553.55 729.15 559.04 729.98
  Z
  M 166.37 715.45
  C 179.92 748.74 235.07 878.43 289.41 845.31
  C 297.82 840.19 304.54 834.61 309.59 828.57
  C 340.58 791.52 372.51 755.25 405.36 719.74
  C 405.74 719.33 405.71 718.68 405.29 718.31
  C 377.04 692.98 358.48 662.05 349.62 625.52
  C 345.05 606.64 343.24 584.53 345.35 566.07
  C 347.56 546.85 348.85 535.24 349.22 531.25
  C 353.05 490.74 351.98 449.47 349.63 407.24
  C 349.21 399.67 349.07 393.01 349.20 387.25
  C 350.64 324.48 362.47 261.11 387.48 203.21
  C 402.01 169.57 421.73 139.87 446.64 114.12
  C 447.15 113.59 446.93 112.70 446.23 112.47
  C 415.56 102.43 383.32 94.68 349.51 89.22
  C 284.48 78.73 209.64 79.20 152.18 115.68
  C 79.73 161.68 66.54 256.89 70.17 334.52
  C 71.11 354.54 74.27 374.77 77.76 394.50
  C 91.33 471.12 109.60 546.60 132.59 620.93
  C 142.49 652.93 153.75 684.44 166.37 715.45
  Z
  M 956.13 358.01
  C 944.62 356.51 933.31 355.75 922.20 355.74
  C 892.79 355.71 855.96 360.38 844.71 392.51
  C 835.32 419.35 844.37 456.54 853.82 483.23
  C 871.43 532.92 897.05 579.74 921.30 623.56
  C 926.31 632.62 929.87 640.04 933.94 649.06
  C 935.29 652.06 937.05 655.53 939.21 659.46
  C 939.86 660.63 940.45 660.61 941.00 659.38
  C 947.08 645.79 951.07 632.16 952.96 618.48
  C 958.09 581.57 952.07 544.98 947.61 505.43
  C 944.87 481.20 945.14 456.75 948.43 432.08
  C 950.32 417.90 952.27 403.73 954.29 389.56
  C 955.74 379.39 956.64 369.22 957.00 359.04
  C 957.02 358.52 956.64 358.08 956.13 358.01
  Z
  M 379.22 578.96
  C 377.62 650.89 430.31 721.81 506.39 722.44
  C 506.84 722.44 507.24 722.15 507.36 721.72
  C 514.69 696.79 523.52 672.40 533.87 648.55
  C 538.03 638.96 542.15 629.34 546.23 619.70
  C 574.92 551.91 568.97 477.97 553.23 407.93
  C 542.60 360.62 503.70 355.90 463.27 365.35
  C 435.54 371.84 407.09 383.59 384.25 400.84
  C 383.98 401.04 383.83 401.37 383.85 401.71
  C 387.59 454.39 387.79 505.20 381.05 559.08
  C 379.92 568.09 379.31 574.72 379.22 578.96
  Z
  M 929.97 811.08
  C 937.46 815.65 948.88 817.14 957.50 817.82
  C 984.47 819.96 1013.23 816.87 1039.60 811.00
  C 1054.78 807.63 1070.01 801.80 1085.28 793.53
  C 1097.31 787.02 1108.52 779.35 1118.93 770.50
  C 1120.54 769.13 1120.32 768.67 1118.25 769.11
  C 1095.18 774.02 1071.84 777.01 1048.24 778.06
  C 1020.78 779.29 988.96 776.88 966.14 759.59
  C 965.89 759.40 965.57 759.34 965.27 759.42
  C 948.55 764.06 936.06 766.66 931.34 785.13
  C 929.25 793.33 928.64 801.73 929.50 810.33
  C 929.53 810.64 929.71 810.92 929.97 811.08
  Z
  M 402.63 852.49
  C 409.27 856.55 416.21 859.51 423.46 861.38
  C 481.14 876.28 537.93 865.44 575.37 816.17
  C 578.67 811.83 580.68 808.05 581.40 804.83
  C 584.45 791.32 574.85 772.01 562.08 766.82
  C 556.59 764.59 551.25 762.60 546.04 765.76
  C 542.51 767.91 538.76 771.34 534.80 776.06
  C 528.33 783.75 521.93 791.49 515.60 799.29
  C 509.67 806.59 505.26 811.58 502.38 814.25
  C 491.11 824.73 476.15 831.31 462.26 835.28
  C 450.20 838.72 436.37 842.09 420.78 845.38
  C 414.57 846.69 408.57 848.47 402.79 850.71
  C 401.54 851.20 401.48 851.79 402.63 852.49
  Z"
/>
<path fill="#336791" d="
  M 1120.49 204.01
  C 1127.39 235.38 1125.25 271.30 1121.28 301.51
  C 1113.67 359.38 1098.35 416.63 1078.93 471.61
  C 1050.68 551.59 1014.02 627.48 968.93 699.28
  C 968.56 699.87 967.73 699.91 967.30 699.37
  L 962.75 693.66
  C 962.49 693.34 962.46 692.88 962.68 692.52
  C 982.89 658.62 990.71 620.99 989.48 581.75
  C 988.60 553.41 984.54 525.13 981.71 496.92
  C 979.56 475.39 980.03 453.91 983.14 432.48
  C 988.08 398.49 991.66 380.37 991.68 353.56
  C 991.68 347.72 992.85 338.38 991.22 331.05
  C 988.58 319.13 984.49 306.62 978.96 293.52
  C 958.24 244.47 929.59 200.63 893.00 162.00
  C 859.47 126.59 820.47 98.62 776.00 78.11
  C 774.51 77.42 774.57 76.92 776.18 76.60
  C 809.37 69.99 842.56 67.05 875.75 67.76
  C 966.92 69.72 1050.79 104.53 1107.96 177.01
  C 1114.48 185.27 1118.34 194.21 1120.49 204.01
  Z"
/>
<path fill="#336791" d="
  M 616.06 789.28
  C 610.67 760.10 589.61 734.57 559.04 729.98
  C 553.55 729.15 548.01 729.31 542.42 730.46
  C 541.68 730.61 541.04 729.92 541.26 729.20
  C 548.42 705.26 557.04 681.86 567.11 659.01
  C 571.59 648.84 575.91 638.61 580.07 628.31
  C 597.27 585.72 603.15 541.07 600.46 494.56
  C 598.46 460.12 593.56 426.93 585.75 395.00
  C 583.67 386.50 579.71 376.71 575.13 369.08
  C 545.80 320.23 487.63 320.76 439.14 335.79
  C 421.02 341.41 403.64 348.76 387.00 357.84
  C 385.91 358.43 385.42 358.11 385.52 356.88
  C 388.57 319.39 395.74 283.26 407.01 248.51
  C 418.76 212.32 437.47 175.52 463.36 147.00
  C 503.06 103.28 555.90 81.99 615.44 80.96
  C 702.94 79.45 779.08 106.71 843.86 162.74
  C 877.29 191.65 905.94 228.24 927.57 266.73
  C 937.16 283.80 945.48 301.98 952.51 321.26
  C 952.77 321.96 952.20 322.69 951.46 322.60
  C 932.90 320.45 914.08 320.42 895.01 322.53
  C 885.70 323.56 876.42 325.64 867.16 328.79
  C 777.23 359.32 806.74 463.42 832.91 525.44
  C 844.27 552.35 856.99 578.59 871.08 604.18
  C 881.40 622.91 892.42 641.54 901.29 661.00
  C 907.28 674.14 914.44 686.63 922.79 698.46
  C 924.97 701.54 932.47 711.27 945.29 727.66
  C 945.70 728.18 945.49 728.96 944.87 729.20
  C 942.87 729.99 940.88 730.72 938.91 731.39
  C 916.82 738.90 902.30 755.58 897.19 778.51
  C 893.71 794.12 895.21 808.30 893.63 823.44
  C 886.00 896.83 876.73 970.00 865.82 1042.97
  C 862.99 1061.92 859.16 1080.74 851.88 1098.54
  C 839.57 1128.64 816.34 1146.43 786.27 1157.05
  C 740.13 1173.33 682.83 1182.37 649.72 1136.79
  C 639.77 1123.10 632.26 1107.26 627.18 1089.27
  C 626.35 1086.34 625.21 1079.23 623.74 1067.93
  C 622.89 1061.46 622.18 1054.84 621.59 1048.05
  C 614.58 967.25 614.60 882.88 616.85 802.79
  C 617.00 797.44 616.74 792.94 616.06 789.28
  Z"
/>
<path fill="#336791" d="
  M 289.41 845.31
  C 235.07 878.43 179.92 748.74 166.37 715.45
  C 153.75 684.44 142.49 652.93 132.59 620.93
  C 109.60 546.60 91.33 471.12 77.76 394.50
  C 74.27 374.77 71.11 354.54 70.17 334.52
  C 66.54 256.89 79.73 161.68 152.18 115.68
  C 209.64 79.20 284.48 78.73 349.51 89.22
  C 383.32 94.68 415.56 102.43 446.23 112.47
  C 446.93 112.70 447.15 113.59 446.64 114.12
  C 421.73 139.87 402.01 169.57 387.48 203.21
  C 362.47 261.11 350.64 324.48 349.20 387.25
  C 349.07 393.01 349.21 399.67 349.63 407.24
  C 351.98 449.47 353.05 490.74 349.22 531.25
  C 348.85 535.24 347.56 546.85 345.35 566.07
  C 343.24 584.53 345.05 606.64 349.62 625.52
  C 358.48 662.05 377.04 692.98 405.29 718.31
  C 405.71 718.68 405.74 719.33 405.36 719.74
  C 372.51 755.25 340.58 791.52 309.59 828.57
  C 304.54 834.61 297.82 840.19 289.41 845.31
  Z"
/>
<path fill="#336791" d="
  M 956.13 358.01
  C 956.64 358.08 957.02 358.52 957.00 359.04
  C 956.64 369.22 955.74 379.39 954.29 389.56
  C 952.27 403.73 950.32 417.90 948.43 432.08
  C 945.14 456.75 944.87 481.20 947.61 505.43
  C 952.07 544.98 958.09 581.57 952.96 618.48
  C 951.07 632.16 947.08 645.79 941.00 659.38
  C 940.45 660.61 939.86 660.63 939.21 659.46
  C 937.05 655.53 935.29 652.06 933.94 649.06
  C 929.87 640.04 926.31 632.62 921.30 623.56
  C 897.05 579.74 871.43 532.92 853.82 483.23
  C 844.37 456.54 835.32 419.35 844.71 392.51
  C 855.96 360.38 892.79 355.71 922.20 355.74
  C 933.31 355.75 944.62 356.51 956.13 358.01
  Z
  M 874.19 400.56
  C 886.65 410.53 901.38 410.24 913.43 400.45
  C 918.39 396.43 927.57 386.41 923.98 379.41
  C 915.51 362.90 843.94 376.37 874.19 400.56
  Z"
/>
<path fill="#336791" d="
  M 506.39 722.44
  C 430.31 721.81 377.62 650.89 379.22 578.96
  C 379.31 574.72 379.92 568.09 381.05 559.08
  C 387.79 505.20 387.59 454.39 383.85 401.71
  C 383.83 401.37 383.98 401.04 384.25 400.84
  C 407.09 383.59 435.54 371.84 463.27 365.35
  C 503.70 355.90 542.60 360.62 553.23 407.93
  C 568.97 477.97 574.92 551.91 546.23 619.70
  C 542.15 629.34 538.03 638.96 533.87 648.55
  C 523.52 672.40 514.69 696.79 507.36 721.72
  C 507.24 722.15 506.84 722.44 506.39 722.44
  Z
  M 484.44 412.81
  C 488.57 416.26 492.82 418.80 497.17 420.45
  C 511.14 425.70 526.49 419.66 534.98 407.80
  C 541.06 399.29 535.74 391.80 527.60 387.76
  C 514.84 381.42 501.40 379.49 487.28 381.97
  C 466.09 385.68 473.35 403.56 484.44 412.81
  Z"
/>
<path fill="#ffffff" d="
  M 874.19 400.56
  C 843.94 376.37 915.51 362.90 923.98 379.41
  C 927.57 386.41 918.39 396.43 913.43 400.45
  C 901.38 410.24 886.65 410.53 874.19 400.56
  Z"
/>
<path fill="#ffffff" d="
  M 484.44 412.81
  C 473.35 403.56 466.09 385.68 487.28 381.97
  C 501.40 379.49 514.84 381.42 527.60 387.76
  C 535.74 391.80 541.06 399.29 534.98 407.80
  C 526.49 419.66 511.14 425.70 497.17 420.45
  C 492.82 418.80 488.57 416.26 484.44 412.81
  Z"
/>
<path fill="#336791" d="
  M 929.97 811.08
  C 929.71 810.92 929.53 810.64 929.50 810.33
  C 928.64 801.73 929.25 793.33 931.34 785.13
  C 936.06 766.66 948.55 764.06 965.27 759.42
  C 965.57 759.34 965.89 759.40 966.14 759.59
  C 988.96 776.88 1020.78 779.29 1048.24 778.06
  C 1071.84 777.01 1095.18 774.02 1118.25 769.11
  C 1120.32 768.67 1120.54 769.13 1118.93 770.50
  C 1108.52 779.35 1097.31 787.02 1085.28 793.53
  C 1070.01 801.80 1054.78 807.63 1039.60 811.00
  C 1013.23 816.87 984.47 819.96 957.50 817.82
  C 948.88 817.14 937.46 815.65 929.97 811.08
  Z"
/>
<path fill="#336791" d="
  M 402.63 852.49
  C 401.48 851.79 401.54 851.20 402.79 850.71
  C 408.57 848.47 414.57 846.69 420.78 845.38
  C 436.37 842.09 450.20 838.72 462.26 835.28
  C 476.15 831.31 491.11 824.73 502.38 814.25
  C 505.26 811.58 509.67 806.59 515.60 799.29
  C 521.93 791.49 528.33 783.75 534.80 776.06
  C 538.76 771.34 542.51 767.91 546.04 765.76
  C 551.25 762.60 556.59 764.59 562.08 766.82
  C 574.85 772.01 584.45 791.32 581.40 804.83
  C 580.68 808.05 578.67 811.83 575.37 816.17
  C 537.93 865.44 481.14 876.28 423.46 861.38
  C 416.21 859.51 409.27 856.55 402.63 852.49
  Z"
/>
</svg>
